<svg id="Слой_1" data-name="Слой 1" xmlns="http://www.w3.org/2000/svg" xmlns:xlink="http://www.w3.org/1999/xlink" viewBox="0 0 3500 2000"><defs><style>.cls-1{fill:none;}.cls-2{fill:#ddeffe;opacity:0.6;}.cls-3,.cls-56{fill:#9bd6e8;}.cls-11,.cls-3{opacity:0.5;}.cls-4{fill:#63acc2;}.cls-5{clip-path:url(#clip-path);}.cls-6{fill:#d5ebfe;}.cls-7{fill:#303c60;}.cls-8{fill:#f09959;}.cls-11,.cls-9{fill:#6791c9;}.cls-10{fill:#75a1de;}.cls-12{fill:#e38540;}.cls-13{fill:#f5ce5c;}.cls-14{fill:#4381db;}.cls-15{fill:#2e5b9a;}.cls-16{fill:#9cbeed;}.cls-17{fill:#fff;}.cls-18{fill:#232e4f;}.cls-19{fill:#1b243d;}.cls-20{fill:#ffd24f;}.cls-21{fill:#edc055;}.cls-22{fill:#2a66c6;}.cls-23{fill:#0f2d5c;}.cls-24{fill:#9ec8ff;}.cls-25{clip-path:url(#clip-path-2);}.cls-26{fill:#d54a41;}.cls-27{fill:#58556e;}.cls-28{fill:#7ec1d6;}.cls-29{fill:#8ddaf2;}.cls-30{fill:#3e6bab;}.cls-31{fill:#f37168;}.cls-32{fill:#ffcb30;}.cls-33{fill:#4578bf;}.cls-34{clip-path:url(#clip-path-3);}.cls-35{fill:#255096;}.cls-36{fill:#ffc34e;}.cls-37{fill:#a1a654;}.cls-38{fill:#c1c765;}.cls-39{clip-path:url(#clip-path-4);}.cls-40{fill:#a8ceff;}.cls-41{fill:#93bbf0;}.cls-42{clip-path:url(#clip-path-5);}.cls-43{fill:#fb8627;}.cls-44{fill:url(#Безымянный_градиент_37);}.cls-45{fill:url(#Безымянный_градиент_37-2);}.cls-46{fill:url(#Безымянный_градиент_37-3);}.cls-47{fill:url(#Безымянный_градиент_37-4);}.cls-48{clip-path:url(#clip-path-6);}.cls-49{fill:#c6e0f7;}.cls-50{fill:#2e2d3d;}.cls-51{fill:#bdccd4;}.cls-52{clip-path:url(#clip-path-7);}.cls-53{fill:#3a384d;}.cls-54{clip-path:url(#clip-path-8);}.cls-55{fill:#7a4e34;}</style><clipPath id="clip-path"><circle class="cls-1" cx="1559.74" cy="1101.43" r="320.17" transform="translate(-321.99 1425.5) rotate(-45)"/></clipPath><clipPath id="clip-path-2"><circle class="cls-1" cx="953.1" cy="538.34" r="380"/></clipPath><clipPath id="clip-path-3"><circle class="cls-1" cx="2398.12" cy="506.52" r="351.03" transform="translate(344.23 1844.08) rotate(-45)"/></clipPath><clipPath id="clip-path-4"><circle class="cls-1" cx="3058.64" cy="1130.78" r="251.24" transform="translate(96.27 2493.99) rotate(-45)"/></clipPath><clipPath id="clip-path-5"><circle class="cls-1" cx="522.44" cy="1482.09" r="315.09"/></clipPath><linearGradient id="Безымянный_градиент_37" x1="2852.71" y1="1343.56" x2="2313.67" y2="1982.74" gradientTransform="translate(-2051.62)" gradientUnits="userSpaceOnUse"><stop offset="0" stop-color="#ffc34e"/><stop offset="1" stop-color="#fb8627"/></linearGradient><linearGradient id="Безымянный_градиент_37-2" x1="2747.43" y1="1254.77" x2="2208.39" y2="1893.95" xlink:href="#Безымянный_градиент_37"/><linearGradient id="Безымянный_градиент_37-3" x1="2872.68" y1="1138.74" x2="2502.34" y2="1801.23" xlink:href="#Безымянный_градиент_37"/><linearGradient id="Безымянный_градиент_37-4" x1="2840.73" y1="1296.14" x2="2265.41" y2="1978.33" xlink:href="#Безымянный_градиент_37"/><clipPath id="clip-path-6"><circle class="cls-1" cx="1620.98" cy="385.34" r="153"/></clipPath><clipPath id="clip-path-7"><circle class="cls-1" cx="335.77" cy="875.17" r="153"/></clipPath><clipPath id="clip-path-8"><circle class="cls-1" cx="3150.43" cy="529.47" r="163.03" transform="translate(548.35 2382.77) rotate(-45)"/></clipPath></defs><path class="cls-2" d="M251.11,1170.41c-122.33-535.13,232-955.25,960-1039.19,815.36-94,979.27,356.93,747.64,487.86s-623,939.15-673.32,1097S423.11,1922.82,251.11,1170.41Z"/><path class="cls-2" d="M2837.49,593.21C3221.72,610,3482.66,1196,3194.88,1501S1839,1696.81,1877.05,1475.4s494.06-150.28,690.06-423.84S2727.87,588.42,2837.49,593.21Z"/><path class="cls-3" d="M2961.62,1757.8c-299.34-.76-968.08,12.09-1493.64,39.38s-80.72,88.45,281.24,62.41,615.16,56.88,1058.18,28.88S3308.93,1758.67,2961.62,1757.8Z"/><path class="cls-4" d="M342.85,901.65a2.52,2.52,0,0,1-2.4-1.8l-7.08-24a2.49,2.49,0,0,1,1.32-3l22.54-10.81a2.5,2.5,0,0,1,2.17,4.51l-20.63,9.88,6.48,21.94a2.52,2.52,0,0,1-2.4,3.21Z"/><path class="cls-4" d="M502.09,1440.76a2.5,2.5,0,0,1-2.4-1.79L486.42,1394a2.5,2.5,0,0,1,4.8-1.41l13.27,44.92a2.51,2.51,0,0,1-1.69,3.11A2.53,2.53,0,0,1,502.09,1440.76Zm-26.54-89.85a2.5,2.5,0,0,1-2.4-1.79l-13.27-44.93a2.5,2.5,0,1,1,4.8-1.42L478,1347.7a2.51,2.51,0,0,1-1.69,3.11A2.53,2.53,0,0,1,475.55,1350.91ZM449,1261.06a2.51,2.51,0,0,1-2.4-1.8l-13.27-44.92a2.5,2.5,0,0,1,4.8-1.42l13.27,44.93a2.5,2.5,0,0,1-1.69,3.1A2.56,2.56,0,0,1,449,1261.06Zm-26.54-89.85a2.51,2.51,0,0,1-2.4-1.8l-13.27-44.92a2.5,2.5,0,0,1,4.8-1.42L424.87,1168a2.5,2.5,0,0,1-1.69,3.1A2.56,2.56,0,0,1,422.47,1171.21Zm-26.54-89.86a2.5,2.5,0,0,1-2.4-1.79l-13.27-44.93a2.5,2.5,0,0,1,4.8-1.41l13.27,44.92a2.51,2.51,0,0,1-1.69,3.11A2.53,2.53,0,0,1,395.93,1081.35ZM369.39,991.5a2.51,2.51,0,0,1-2.4-1.79l-13.27-44.93a2.5,2.5,0,0,1,4.8-1.41l13.27,44.92a2.51,2.51,0,0,1-1.69,3.11A2.53,2.53,0,0,1,369.39,991.5Z"/><path class="cls-4" d="M522.44,1509.66a2.42,2.42,0,0,1-1.12-.26,2.5,2.5,0,0,1-1.28-1.53l-7.08-24a2.5,2.5,0,1,1,4.79-1.42l6.33,21.41,20.94-7.75a2.5,2.5,0,1,1,1.73,4.69l-23.44,8.68A2.61,2.61,0,0,1,522.44,1509.66Z"/><path class="cls-4" d="M592.09,1483.89a2.5,2.5,0,0,1-.86-4.84l46.21-17.1a2.5,2.5,0,1,1,1.73,4.69L593,1483.74A2.61,2.61,0,0,1,592.09,1483.89Zm92.42-34.19a2.5,2.5,0,0,1-.86-4.85l46.21-17.09a2.5,2.5,0,1,1,1.73,4.69l-46.21,17.09A2.43,2.43,0,0,1,684.51,1449.7Zm92.42-34.19a2.51,2.51,0,0,1-.87-4.85l46.21-17.1a2.5,2.5,0,1,1,1.74,4.69l-46.21,17.1A2.43,2.43,0,0,1,776.93,1415.51Zm92.42-34.2a2.5,2.5,0,0,1-.87-4.84l46.21-17.1a2.5,2.5,0,1,1,1.74,4.69l-46.21,17.1A2.65,2.65,0,0,1,869.35,1381.31Zm92.42-34.19a2.5,2.5,0,0,1-.87-4.85l46.21-17.09a2.5,2.5,0,0,1,1.74,4.69L962.64,1347A2.43,2.43,0,0,1,961.77,1347.12Zm92.42-34.19a2.5,2.5,0,0,1-.87-4.85l46.21-17.1a2.5,2.5,0,1,1,1.73,4.69l-46.2,17.1A2.43,2.43,0,0,1,1054.19,1312.93Zm92.42-34.2a2.5,2.5,0,0,1-.87-4.84l46.21-17.1a2.5,2.5,0,1,1,1.73,4.69l-46.21,17.1A2.6,2.6,0,0,1,1146.61,1278.73Zm92.42-34.19a2.5,2.5,0,0,1-.87-4.85l46.21-17.09a2.5,2.5,0,1,1,1.73,4.69l-46.21,17.09A2.38,2.38,0,0,1,1239,1244.54Zm92.41-34.19a2.5,2.5,0,0,1-.86-4.85l46.21-17.1a2.5,2.5,0,0,1,1.73,4.69l-46.21,17.1A2.62,2.62,0,0,1,1331.44,1210.35Zm92.42-34.2a2.5,2.5,0,0,1-.86-4.84l46.21-17.1a2.5,2.5,0,0,1,1.73,4.69l-46.21,17.1A2.65,2.65,0,0,1,1423.86,1176.15Z"/><path class="cls-4" d="M1561.23,1146a2.47,2.47,0,0,1-1.28-.35l-20.47-12.15-22.33,8.26a2.5,2.5,0,0,1-1.74-4.69l23.45-8.67a2.54,2.54,0,0,1,2.15.19l21.49,12.76a2.5,2.5,0,0,1-1.27,4.65Z"/><path class="cls-4" d="M2271,1567.33a2.47,2.47,0,0,1-1.28-.35l-44.36-26.33a2.5,2.5,0,0,1,2.55-4.3l44.36,26.33a2.5,2.5,0,0,1-1.27,4.65Zm-88.73-52.66a2.46,2.46,0,0,1-1.27-.35L2136.66,1488a2.5,2.5,0,1,1,2.56-4.3l44.36,26.33a2.5,2.5,0,0,1-1.28,4.65ZM2093.58,1462a2.47,2.47,0,0,1-1.28-.35l-44.36-26.33a2.5,2.5,0,0,1,2.55-4.3l44.36,26.33a2.5,2.5,0,0,1-1.27,4.65Zm-88.73-52.66a2.46,2.46,0,0,1-1.27-.35l-44.37-26.33a2.5,2.5,0,0,1,2.56-4.3l44.36,26.33a2.5,2.5,0,0,1-1.28,4.65Zm-88.73-52.66a2.46,2.46,0,0,1-1.27-.35L1870.49,1330a2.5,2.5,0,0,1,2.55-4.3L1917.4,1352a2.5,2.5,0,0,1-1.28,4.65ZM1827.4,1304a2.56,2.56,0,0,1-1.27-.35l-44.37-26.33a2.5,2.5,0,1,1,2.56-4.3l44.36,26.33a2.5,2.5,0,0,1-1.28,4.65Zm-88.72-52.66a2.48,2.48,0,0,1-1.28-.36L1693,1224.68a2.5,2.5,0,1,1,2.55-4.29l44.36,26.33a2.5,2.5,0,0,1-1.27,4.65ZM1650,1198.7a2.46,2.46,0,0,1-1.27-.35L1604.31,1172a2.5,2.5,0,0,1,2.56-4.3l44.36,26.33a2.5,2.5,0,0,1-1.28,4.65Z"/><path class="cls-4" d="M2336.89,1606.42a2.47,2.47,0,0,1-1.28-.35l-21.5-12.76a2.5,2.5,0,0,1,2.56-4.3l20.16,12,19.64-12.8a2.5,2.5,0,0,1,2.73,4.19L2338.25,1606A2.48,2.48,0,0,1,2336.89,1606.42Z"/><path class="cls-4" d="M2402.22,1563.85a2.5,2.5,0,0,1-1.37-4.6l44.38-28.92a2.5,2.5,0,0,1,2.73,4.19l-44.38,28.92A2.43,2.43,0,0,1,2402.22,1563.85ZM2491,1506a2.5,2.5,0,0,1-1.37-4.6l44.38-28.92a2.5,2.5,0,0,1,2.73,4.19l-44.38,28.92A2.43,2.43,0,0,1,2491,1506Zm88.76-57.85a2.5,2.5,0,0,1-1.36-4.59l44.38-28.93a2.5,2.5,0,1,1,2.73,4.19l-44.38,28.93A2.56,2.56,0,0,1,2579.74,1448.16Zm88.77-57.84a2.5,2.5,0,0,1-1.37-4.6l44.38-28.92a2.5,2.5,0,0,1,2.73,4.19l-44.38,28.92A2.43,2.43,0,0,1,2668.51,1390.32Zm88.76-57.85a2.5,2.5,0,0,1-1.37-4.59l44.38-28.92a2.5,2.5,0,0,1,2.73,4.19l-44.38,28.92A2.5,2.5,0,0,1,2757.27,1332.47Zm88.76-57.84a2.5,2.5,0,0,1-1.36-4.6l44.38-28.92a2.5,2.5,0,0,1,2.73,4.19l-44.38,28.92A2.49,2.49,0,0,1,2846,1274.63Zm88.77-57.85a2.5,2.5,0,0,1-1.37-4.59l44.38-28.92a2.5,2.5,0,0,1,2.73,4.19l-44.38,28.92A2.5,2.5,0,0,1,2934.8,1216.78Z"/><path class="cls-4" d="M3023.56,1158.94a2.5,2.5,0,0,1-1.37-4.6l20-13,4.13-23.56a2.5,2.5,0,1,1,4.92.87l-4.32,24.62a2.49,2.49,0,0,1-1.09,1.67l-20.95,13.64A2.43,2.43,0,0,1,3023.56,1158.94Z"/><path class="cls-4" d="M3057.67,1070.19a3.25,3.25,0,0,1-.44,0,2.5,2.5,0,0,1-2-2.9l8.84-50.47a2.5,2.5,0,0,1,4.93.86l-8.85,50.47A2.49,2.49,0,0,1,3057.67,1070.19Zm17.68-100.94a3.28,3.28,0,0,1-.43,0,2.5,2.5,0,0,1-2-2.9l8.84-50.47a2.5,2.5,0,0,1,4.93.86l-8.85,50.48A2.5,2.5,0,0,1,3075.35,969.25Zm17.69-101a2.15,2.15,0,0,1-.43,0,2.5,2.5,0,0,1-2-2.89l8.84-50.48a2.5,2.5,0,0,1,4.93.87l-8.85,50.47A2.49,2.49,0,0,1,3093,868.3Zm17.69-100.95-.43,0a2.5,2.5,0,0,1-2-2.9l8.84-50.47a2.5,2.5,0,0,1,4.93.86l-8.85,50.47A2.49,2.49,0,0,1,3110.73,767.35Zm17.69-100.94a2.15,2.15,0,0,1-.43,0,2.5,2.5,0,0,1-2-2.89L3134.8,613a2.5,2.5,0,1,1,4.93.87l-8.85,50.47A2.5,2.5,0,0,1,3128.42,666.41Z"/><path class="cls-4" d="M3146.11,565.46a2.15,2.15,0,0,1-.43,0,2.5,2.5,0,0,1-2-2.89l3.84-21.92-22.18-1.75a2.5,2.5,0,1,1,.39-5l24.92,2a2.51,2.51,0,0,1,2.27,2.93l-4.32,24.62A2.49,2.49,0,0,1,3146.11,565.46Z"/><path class="cls-4" d="M403.7,845.12a2.5,2.5,0,0,1-1.08-4.75L448,818.62a2.5,2.5,0,0,1,2.16,4.51l-45.38,21.75A2.61,2.61,0,0,1,403.7,845.12Zm90.76-43.49a2.5,2.5,0,0,1-1.08-4.75l45.39-21.75a2.5,2.5,0,0,1,2.16,4.51l-45.39,21.74A2.44,2.44,0,0,1,494.46,801.63Zm90.77-43.49a2.5,2.5,0,0,1-1.08-4.76l45.38-21.74a2.5,2.5,0,1,1,2.16,4.51l-45.38,21.74A2.47,2.47,0,0,1,585.23,758.14ZM676,714.65a2.5,2.5,0,0,1-1.09-4.76l45.39-21.74a2.5,2.5,0,0,1,2.16,4.5L677.07,714.4A2.4,2.4,0,0,1,676,714.65Zm90.76-43.5a2.5,2.5,0,0,1-1.08-4.75l45.38-21.75a2.5,2.5,0,1,1,2.16,4.51l-45.38,21.75A2.61,2.61,0,0,1,766.76,671.15Zm90.77-43.49a2.5,2.5,0,0,1-1.08-4.75l45.38-21.75a2.5,2.5,0,0,1,2.16,4.51l-45.38,21.75A2.61,2.61,0,0,1,857.53,627.66Zm90.76-43.49a2.5,2.5,0,0,1-1.08-4.76l30-14.39.38-.14L994,560.11a2.5,2.5,0,0,1,1.4,4.8l-16.14,4.71-29.85,14.3A2.44,2.44,0,0,1,948.29,584.17ZM1043,550.9a2.5,2.5,0,0,1-.7-4.9l48.3-14.11a2.5,2.5,0,0,1,1.41,4.8l-48.31,14.11A2.42,2.42,0,0,1,1043,550.9Zm2032.37-16h-.2l-50.17-4a2.5,2.5,0,1,1,.4-5l50.16,4a2.5,2.5,0,0,1-.19,5ZM2975,527h-.2l-50.16-4a2.5,2.5,0,0,1,.39-5l50.17,4a2.5,2.5,0,0,1-.2,5Zm-1835.42-4.29a2.5,2.5,0,0,1-.7-4.9l48.31-14.11a2.5,2.5,0,0,1,1.4,4.8l-48.31,14.11A2.82,2.82,0,0,1,1139.58,522.69Zm1735.09-3.64h-.2l-50.17-4a2.5,2.5,0,1,1,.4-5l50.16,4a2.5,2.5,0,0,1-.19,5Zm-100.34-7.92h-.2l-50.16-4a2.5,2.5,0,1,1,.39-5l50.17,4a2.5,2.5,0,0,1-.2,5ZM2674,503.2h-.2l-50.17-4a2.5,2.5,0,0,1,.39-5l50.17,4a2.5,2.5,0,0,1-.19,5Zm-100.34-7.93h-.2l-50.17-4a2.5,2.5,0,1,1,.4-5l50.17,4a2.5,2.5,0,0,1-.2,5Zm-1337.47-.8a2.5,2.5,0,0,1-.7-4.9l48.31-14.1a2.5,2.5,0,0,1,1.4,4.8l-48.3,14.1A2.48,2.48,0,0,1,1236.19,494.47Zm1237.14-7.12h-.2l-50.17-4a2.5,2.5,0,0,1,.39-5l50.17,4a2.5,2.5,0,0,1-.19,5Zm-100.27-8.58-.3,0-50-5.89a2.5,2.5,0,1,1,.59-5l50,5.89a2.5,2.5,0,0,1-.29,5ZM2273.1,467l-.3,0-50-5.89a2.5,2.5,0,0,1,.58-5l50,5.89a2.5,2.5,0,0,1-.29,5Zm-940.29-.73a2.5,2.5,0,0,1-.7-4.9l48.3-14.11a2.5,2.5,0,0,1,1.4,4.8l-48.3,14.11A2.47,2.47,0,0,1,1332.81,466.26Zm840.33-11.05a1.46,1.46,0,0,1-.29,0l-50-5.88a2.5,2.5,0,1,1,.59-5l50,5.89a2.5,2.5,0,0,1-.29,5Zm-99.95-11.78h-.3l-50-5.89a2.5,2.5,0,1,1,.58-5l50,5.89a2.5,2.5,0,0,1-.29,5Zm-643.77-5.38a2.5,2.5,0,0,1-.7-4.9L1477,419a2.5,2.5,0,0,1,1.4,4.8L1430.12,438A2.82,2.82,0,0,1,1429.42,438.05Zm543.81-6.39-.29,0-50-5.89a2.5,2.5,0,0,1,.58-5l50,5.89a2.5,2.5,0,0,1-.29,5Zm-100-11.78-.3,0L1823,414a2.5,2.5,0,0,1,.59-5l50,5.89a2.5,2.5,0,0,1-.28,5ZM1526,409.83a2.5,2.5,0,0,1-.7-4.9l48.31-14.1a2.5,2.5,0,0,1,1.4,4.8l-48.31,14.1A2.42,2.42,0,0,1,1526,409.83Zm247.29-1.73-.3,0-50-5.89a2.5,2.5,0,1,1,.59-5l50,5.89a2.5,2.5,0,0,1-.29,5Zm-100-11.78-.29,0-50-5.89a2.5,2.5,0,1,1,.58-5l50,5.89a2.5,2.5,0,0,1-.29,5Z"/><path class="cls-4" d="M380.69,887.24a2.31,2.31,0,0,1-.52-.06L355.71,882a2.5,2.5,0,0,1,1-4.89l24.46,5.19a2.5,2.5,0,0,1-.52,5Z"/><path class="cls-4" d="M1466,1117.62a2.39,2.39,0,0,1-.53-.06l-49.33-10.47a2.5,2.5,0,0,1,1-4.89l49.33,10.47a2.5,2.5,0,0,1-.51,4.95Zm-98.66-20.94a2.39,2.39,0,0,1-.53-.06l-49.32-10.47a2.5,2.5,0,1,1,1-4.89l49.33,10.47a2.5,2.5,0,0,1-.51,5Zm-98.66-21a3.05,3.05,0,0,1-.52,0l-49.33-10.47a2.5,2.5,0,0,1,1-4.9l49.33,10.48a2.5,2.5,0,0,1-.51,4.94ZM1170,1054.79a2.24,2.24,0,0,1-.52-.06l-49.33-10.47a2.5,2.5,0,1,1,1-4.89l49.32,10.47a2.5,2.5,0,0,1-.51,5Zm-98.66-21a2.29,2.29,0,0,1-.52,0l-49.33-10.47a2.5,2.5,0,1,1,1-4.89l49.33,10.47a2.5,2.5,0,0,1-.52,4.94Zm-98.66-20.94a2.31,2.31,0,0,1-.52-.06l-49.33-10.47a2.5,2.5,0,1,1,1-4.89L973.17,1008a2.5,2.5,0,0,1-.52,4.95ZM874,992a2.31,2.31,0,0,1-.52-.06l-49.33-10.47a2.5,2.5,0,1,1,1-4.89L874.51,987a2.5,2.5,0,0,1-.52,5Zm-98.66-21a3.05,3.05,0,0,1-.52,0l-49.33-10.48a2.5,2.5,0,1,1,1-4.89l49.33,10.48a2.5,2.5,0,0,1-.52,4.94Zm-98.66-20.94a2.31,2.31,0,0,1-.52-.06l-49.33-10.47a2.5,2.5,0,1,1,1-4.89l49.33,10.47a2.5,2.5,0,0,1-.52,5Zm-98.66-21a2.29,2.29,0,0,1-.52,0L528.16,918.6a2.5,2.5,0,1,1,1-4.89l49.33,10.47a2.5,2.5,0,0,1-.52,4.94Zm-98.66-20.94a2.31,2.31,0,0,1-.52-.06L429.5,897.65a2.5,2.5,0,1,1,1-4.89l49.33,10.47a2.5,2.5,0,0,1-.52,4.95Z"/><path class="cls-4" d="M1539.73,1133.28a2.29,2.29,0,0,1-.52,0l-24.46-5.19a2.5,2.5,0,0,1,1-4.89l21.76,4.62,2.49-22.11a2.5,2.5,0,0,1,5,.56l-2.8,24.84a2.49,2.49,0,0,1-2.48,2.22Z"/><path class="cls-4" d="M1548.35,1056.76l-.28,0a2.5,2.5,0,0,1-2.21-2.76l5.82-51.68a2.5,2.5,0,1,1,5,.56l-5.82,51.68A2.49,2.49,0,0,1,1548.35,1056.76ZM1560,953.4l-.28,0a2.5,2.5,0,0,1-2.21-2.76l5.82-51.68a2.5,2.5,0,1,1,5,.56l-5.82,51.68A2.49,2.49,0,0,1,1560,953.4ZM1571.63,850l-.28,0a2.5,2.5,0,0,1-2.21-2.76l5.82-51.68a2.5,2.5,0,1,1,5,.56l-5.82,51.68A2.5,2.5,0,0,1,1571.63,850Zm11.64-103.36-.28,0a2.5,2.5,0,0,1-2.21-2.76l5.82-51.68a2.5,2.5,0,1,1,5,.56l-5.82,51.68A2.51,2.51,0,0,1,1583.27,746.68Zm11.64-103.36-.29,0a2.5,2.5,0,0,1-2.2-2.76l5.82-51.68a2.5,2.5,0,1,1,5,.56l-5.82,51.68A2.51,2.51,0,0,1,1594.91,643.32ZM1606.55,540l-.29,0a2.5,2.5,0,0,1-2.2-2.76l5.82-51.68a2.5,2.5,0,1,1,5,.56L1609,537.74A2.51,2.51,0,0,1,1606.55,540Z"/><path class="cls-4" d="M1618.19,436.6l-.29,0a2.49,2.49,0,0,1-2.2-2.76l2.8-24.85a2.5,2.5,0,1,1,5,.56l-2.79,24.85A2.51,2.51,0,0,1,1618.19,436.6Z"/><path class="cls-4" d="M565.65,1531.44h-.12l-25-1.16a2.5,2.5,0,1,1,.23-5l25,1.16a2.5,2.5,0,0,1-.11,5Z"/><path class="cls-4" d="M2097.86,1602.88h-.12l-51.07-2.38a2.5,2.5,0,1,1,.23-5l51.07,2.38a2.5,2.5,0,0,1-.11,5Zm-102.15-4.77h-.12l-51.07-2.38a2.5,2.5,0,0,1,.23-5l51.07,2.39a2.5,2.5,0,0,1-.11,5Zm-102.15-4.76h-.12l-51.07-2.38a2.5,2.5,0,0,1,.23-5l51.08,2.38a2.5,2.5,0,0,1-.12,5Zm-102.15-4.76h-.11l-51.08-2.38a2.5,2.5,0,0,1-2.38-2.61,2.53,2.53,0,0,1,2.62-2.38l51.07,2.38a2.5,2.5,0,0,1-.12,5Zm-102.14-4.76h-.12l-51.07-2.38a2.5,2.5,0,1,1,.23-5l51.07,2.38a2.5,2.5,0,0,1-.11,5Zm-102.15-4.77H1587l-51.07-2.38a2.5,2.5,0,0,1,.23-5l51.07,2.39a2.5,2.5,0,0,1-.11,5ZM1485,1574.3h-.12l-51.07-2.38a2.51,2.51,0,0,1-2.38-2.62,2.48,2.48,0,0,1,2.61-2.38l51.08,2.38a2.5,2.5,0,0,1-.12,5Zm-102.14-4.76h-.12l-51.08-2.39a2.5,2.5,0,1,1,.24-5l51.07,2.38a2.5,2.5,0,0,1-.11,5Zm-102.15-4.76h-.12l-51.07-2.38a2.5,2.5,0,1,1,.23-5l51.07,2.38a2.5,2.5,0,0,1-.11,5ZM1178.53,1560h-.12l-51.07-2.38a2.5,2.5,0,0,1,.23-5l51.07,2.39a2.5,2.5,0,0,1-.11,5Zm-102.15-4.76h-.12l-51.07-2.38a2.5,2.5,0,0,1,.23-5l51.08,2.38a2.5,2.5,0,0,1-.12,5Zm-102.14-4.76h-.12L923,1548.1a2.5,2.5,0,1,1,.24-5l51.07,2.38a2.5,2.5,0,0,1-.11,5Zm-102.15-4.77H872l-51.07-2.38a2.49,2.49,0,0,1-2.38-2.61,2.51,2.51,0,0,1,2.61-2.38l51.07,2.38a2.5,2.5,0,0,1-.11,5ZM769.94,1541h-.12l-51.07-2.38a2.5,2.5,0,0,1,.23-5l51.07,2.38a2.5,2.5,0,0,1-.11,5Zm-102.15-4.76h-.12l-51.07-2.38a2.5,2.5,0,0,1,.23-5l51.08,2.38a2.5,2.5,0,0,1-.12,5Z"/><path class="cls-4" d="M2173.9,1606.42h-.11l-25-1.17a2.5,2.5,0,0,1-2.38-2.61,2.53,2.53,0,0,1,2.61-2.38l25,1.16a2.5,2.5,0,0,1-.12,5Z"/><path class="cls-4" d="M3095.31,1231.51a2.5,2.5,0,0,1-1.66-.63L3075,1214.26a2.5,2.5,0,0,1,3.32-3.73l18.68,16.61a2.5,2.5,0,0,1-1.66,4.37Z"/><path class="cls-4" d="M3039.37,1181.74a2.46,2.46,0,0,1-1.66-.64L3000.44,1148a2.5,2.5,0,0,1,3.32-3.74l37.27,33.16a2.5,2.5,0,0,1-1.66,4.37Zm-74.54-66.32a2.51,2.51,0,0,1-1.66-.63l-37.26-33.16a2.5,2.5,0,1,1,3.32-3.73l37.27,33.15a2.5,2.5,0,0,1,.2,3.53A2.47,2.47,0,0,1,2964.83,1115.42Zm-74.53-66.31a2.48,2.48,0,0,1-1.66-.64l-37.26-33.15a2.5,2.5,0,0,1,3.32-3.74l37.27,33.16a2.5,2.5,0,0,1-1.67,4.37Zm-74.53-66.32a2.51,2.51,0,0,1-1.66-.63L2776.85,949a2.5,2.5,0,1,1,3.32-3.73l37.27,33.15a2.5,2.5,0,0,1,.2,3.53A2.47,2.47,0,0,1,2815.77,982.79Zm-74.53-66.31a2.48,2.48,0,0,1-1.66-.64l-37.27-33.15a2.5,2.5,0,0,1,3.33-3.74l37.26,33.16a2.5,2.5,0,0,1-1.66,4.37Zm-74.53-66.32a2.5,2.5,0,0,1-1.66-.63l-37.27-33.16a2.5,2.5,0,0,1,3.33-3.73l37.26,33.15a2.5,2.5,0,0,1-1.66,4.37Zm-74.53-66.31a2.46,2.46,0,0,1-1.66-.64l-37.27-33.15a2.5,2.5,0,1,1,3.33-3.74l37.26,33.16a2.5,2.5,0,0,1-1.66,4.37Zm-74.53-66.32a2.5,2.5,0,0,1-1.66-.63l-37.27-33.16A2.5,2.5,0,1,1,2482,680l37.27,33.15a2.5,2.5,0,0,1-1.66,4.37Z"/><path class="cls-4" d="M2443.12,651.22a2.52,2.52,0,0,1-1.67-.63l-17.29-15.4-19.82,12a2.5,2.5,0,0,1-2.59-4.28l21.4-12.94a2.49,2.49,0,0,1,2.95.27l18.68,16.62a2.5,2.5,0,0,1-1.66,4.37Z"/><path class="cls-4" d="M1662.65,1095.46a2.5,2.5,0,0,1-1.29-4.64l41.13-24.88a2.5,2.5,0,0,1,2.59,4.27l-41.14,24.89A2.52,2.52,0,0,1,1662.65,1095.46Zm82.27-49.77a2.5,2.5,0,0,1-1.3-4.64l41.14-24.88a2.49,2.49,0,1,1,2.58,4.27l-41.13,24.89A2.52,2.52,0,0,1,1744.92,1045.69Zm82.27-49.77a2.5,2.5,0,0,1-1.3-4.64L1867,966.4a2.5,2.5,0,1,1,2.59,4.27l-41.13,24.89A2.54,2.54,0,0,1,1827.19,995.92Zm82.26-49.77a2.5,2.5,0,0,1-1.29-4.64l41.13-24.88a2.5,2.5,0,0,1,2.59,4.28l-41.14,24.88A2.42,2.42,0,0,1,1909.45,946.15Zm82.27-49.77a2.5,2.5,0,0,1-1.3-4.63l41.14-24.89a2.5,2.5,0,1,1,2.58,4.28L1993,896A2.42,2.42,0,0,1,1991.72,896.38ZM2074,846.61a2.49,2.49,0,0,1-1.3-4.63l41.13-24.89a2.5,2.5,0,0,1,2.59,4.28l-41.13,24.88A2.45,2.45,0,0,1,2074,846.61Zm82.26-49.76a2.5,2.5,0,0,1-1.29-4.64l41.13-24.89a2.5,2.5,0,0,1,2.59,4.28l-41.14,24.88A2.44,2.44,0,0,1,2156.25,796.85Zm82.27-49.77a2.5,2.5,0,0,1-1.3-4.64l41.14-24.89a2.5,2.5,0,1,1,2.58,4.28l-41.13,24.89A2.52,2.52,0,0,1,2238.52,747.08Zm82.27-49.77a2.5,2.5,0,0,1-1.3-4.64l41.13-24.88a2.5,2.5,0,0,1,2.59,4.27L2322.08,697A2.54,2.54,0,0,1,2320.79,697.31Z"/><path class="cls-4" d="M1600.13,1133.28a2.5,2.5,0,0,1-1.3-4.64l21.39-12.94a2.5,2.5,0,1,1,2.59,4.28l-21.39,12.94A2.42,2.42,0,0,1,1600.13,1133.28Z"/><path class="cls-4" d="M3096.7,592.27a2.47,2.47,0,0,1-1.68-.65,2.5,2.5,0,0,1-.17-3.53l16.81-18.5a2.5,2.5,0,1,1,3.7,3.36l-16.81,18.5A2.46,2.46,0,0,1,3096.7,592.27Z"/><path class="cls-4" d="M2337.36,1428.09a2.47,2.47,0,0,1-1.68-.65,2.5,2.5,0,0,1-.17-3.53l34.51-38a2.5,2.5,0,0,1,3.71,3.36l-34.52,38A2.46,2.46,0,0,1,2337.36,1428.09Zm69-76a2.5,2.5,0,0,1-1.85-4.18l34.52-38a2.5,2.5,0,1,1,3.7,3.37l-34.52,38A2.5,2.5,0,0,1,2406.39,1352.11Zm69-76a2.47,2.47,0,0,1-1.68-.65,2.5,2.5,0,0,1-.17-3.53l34.52-38a2.5,2.5,0,0,1,3.7,3.36l-34.52,38A2.46,2.46,0,0,1,2475.42,1276.12Zm69-76a2.47,2.47,0,0,1-1.68-.65,2.5,2.5,0,0,1-.17-3.53l34.52-38a2.5,2.5,0,1,1,3.7,3.36l-34.52,38A2.5,2.5,0,0,1,2544.45,1200.14Zm69-76a2.5,2.5,0,0,1-1.85-4.18l34.52-38a2.5,2.5,0,0,1,3.7,3.36l-34.52,38A2.5,2.5,0,0,1,2613.48,1124.16Zm69-76a2.47,2.47,0,0,1-1.68-.65,2.51,2.51,0,0,1-.17-3.53l34.52-38a2.5,2.5,0,1,1,3.7,3.36l-34.52,38A2.46,2.46,0,0,1,2682.51,1048.17Zm69-76a2.47,2.47,0,0,1-1.68-.65,2.51,2.51,0,0,1-.17-3.53l34.52-38a2.5,2.5,0,0,1,3.7,3.36l-34.51,38A2.54,2.54,0,0,1,2751.54,972.19Zm69-76a2.5,2.5,0,0,1-1.85-4.18l34.52-38a2.5,2.5,0,1,1,3.7,3.37l-34.51,38A2.54,2.54,0,0,1,2820.57,896.21Zm69-76a2.45,2.45,0,0,1-1.68-.65,2.49,2.49,0,0,1-.17-3.53l34.51-38a2.5,2.5,0,1,1,3.7,3.36l-34.51,38A2.48,2.48,0,0,1,2889.61,820.22Zm69-76a2.5,2.5,0,0,1-1.85-4.18l34.51-38a2.5,2.5,0,1,1,3.7,3.36l-34.51,38A2.5,2.5,0,0,1,2958.64,744.24Zm69-76a2.52,2.52,0,0,1-1.68-.65,2.49,2.49,0,0,1-.17-3.53l34.51-38a2.5,2.5,0,1,1,3.7,3.37l-34.51,38A2.5,2.5,0,0,1,3027.67,668.26Z"/><path class="cls-4" d="M2286,1484.59a2.5,2.5,0,0,1-1.85-4.18L2301,1461.9a2.5,2.5,0,1,1,3.7,3.36l-16.81,18.51A2.5,2.5,0,0,1,2286,1484.59Z"/><g class="cls-5"><circle class="cls-6" cx="1559.74" cy="1101.43" r="320.17" transform="translate(-321.99 1425.5) rotate(-45)"/><path class="cls-7" d="M1508,843.52c48.64-43.31,84.35-17.47,111,11.4,21.2,23,24.16,28.12,41.68,52,2.6,3.54,4.6,7.47,4.68,11.87.49,26.36,14,137.83-1,176.3-17.47,44.83-233,65.35-233,65.35Z"/><path class="cls-7" d="M1646.06,1120.8a2.44,2.44,0,0,1-.12-4.87c6.33-.32,11.49-3.17,15.76-8.71,24.12-31.25,10.53-135.72-1.3-192.53a2.44,2.44,0,1,1,4.77-1c2.59,12.42,11.24,56.49,13.94,102.4,2.77,47.2-1.79,78.85-13.55,94.1-5.13,6.64-11.64,10.2-19.37,10.6Z"/><path class="cls-7" d="M1526.25,830.61c-93.47,51.67-36.47,226.45-155,288.77-32.85,17.26-133.75,104.86-67.64,220.37,43.25,75.56,172.51,59.28,215.06-7.6S1526.25,830.61,1526.25,830.61Z"/><path class="cls-7" d="M1277.51,1228.2l-.33,0a2.44,2.44,0,0,1-2.09-2.74c.08-.61,2.12-15.36,11.46-34.89a153,153,0,0,1,56-63.1c54.81-34.87,91.19-67.75,134.22-229.84a2.44,2.44,0,1,1,4.71,1.25c-20.81,78.39-41.44,131.38-64.94,166.78-21.83,32.89-44.28,48.69-71.37,65.92-56.9,36.21-65.18,94-65.26,94.53A2.43,2.43,0,0,1,1277.51,1228.2Z"/><path class="cls-7" d="M1279.55,1182.94a2.37,2.37,0,0,1-1.3-.38,2.43,2.43,0,0,1-.76-3.36,169.5,169.5,0,0,1,51.38-52.37c77-49.78,89.71-78.41,153.31-242.39a2.44,2.44,0,0,1,4.55,1.76c-31.82,82-50.83,130.09-71.63,164.17-22.36,36.62-47.58,57.26-83.59,80.55a164.61,164.61,0,0,0-49.9,50.88A2.41,2.41,0,0,1,1279.55,1182.94Z"/><path class="cls-8" d="M1523,939.68c-32.18,66.84-27.23,127.49-27.23,127.49s3.72,23.51,18.57,28.46,35.89-9.9,34.66-29.7,5-68.08,12.37-85.41S1523,939.68,1523,939.68Z"/><path class="cls-9" d="M1353,1404.09c2,18.24-2.53,16.72,13.68,19.76s45.09-8.11,45.09-8.11l-32.43-60.28Z"/><path class="cls-8" d="M1499.67,1031.27c-9.11,29.64-77.5,6.84-101.44,13.68s-44.45,107.14-47.87,197.19,1.14,161.85,10.26,173.25,159.57,16,173.25,11.4-114-61.55-114-61.55-8-104.86,2.28-158.44,102.58-124.24,102.58-124.24Z"/><path class="cls-8" d="M1531.59,1040.39c23.94,36.47,86.63,31.91,108.28,61.55s67.25,192.63,67.25,192.63L1755,1129.3s38.82-6.52,26.21,20.51c-22.42,48.09-30.78,203.24-55.1,225.28-27,24.51-53.95,4.56-69.14-38.35-14.69-41.5-51.29-131.08-77.51-165.27s-54.71-88.91-54.71-88.91Z"/><path class="cls-10" d="M1427.87,1045c47.87,55.85,141.33,53.57,161.85,46.73l20.52-6.84s16-5.7,29.63,10.26,46.74,116.26,52.43,139.06,14.82,60.41,14.82,60.41-24.45,29.35-24.45,59,10.38,29.89,10.38,29.89-30.38-6.81-37.22-25-68.39-183.51-68.39-183.51l-169.83,3.42,2.28,186.93s-14.82-13.68-35.34,0-27.35,45.59-23.93,50.15-6.84,4.56-6.84,1.14-19.38-86.62-5.7-223.4,39.89-151.6,54.71-152.74S1427.87,1045,1427.87,1045Z"/><path class="cls-9" d="M1686.1,1381.09a1.75,1.75,0,0,0,.51.11Z"/><path class="cls-9" d="M1692.67,1298.72c-9.88,3-26.59,38-26.59,38s-38-82.83-49.4-197.58L1603.12,1217c18.72,50.27,48.11,129.15,52.71,141.42,6.26,16.68,31.48,23.64,34.94,24.41-.94-.31-3-1.58-4.76-6.59-1-.9-6.71-3.57-7.77-4.55-9.12-8.36-5.32-28.12.76-50.16S1702.55,1295.68,1692.67,1298.72Z"/><path class="cls-9" d="M1425.78,1178.14,1406.94,1092c-20.51,28.88-22.79,127.67-14.43,195.3,6.85,55.46,17.11,69.86,24.15,75.64a21.24,21.24,0,0,1,3.23,2.28l-2.28-186.93Z"/><path class="cls-10" d="M1371.23,1091.26c35,94.23,17.48,113.23,63.47,223.83,25.7,61.77,75.23,108.28,75.23,108.28s39.9,10.26,90,6.84,86.87-6.87,86.87-6.87-52.68-31.88-55-53.54-12.17-107.56.75-168.35c10.09-47.48-31.52-95-31.52-95l-69.53-3.42Z"/><path class="cls-11" d="M1432.78,1235.64c-6.08-22,25.84,6.84,78.27,12.16s111-3,82.07,6.08-107.9-4.56-93.47,24.32c17,34,37.06,66.87,66.12,86.63,19,12.92,64.59,25.08,20.52,18.24s-91.2-58.52-111.71-92S1434.14,1240.56,1432.78,1235.64Z"/><path class="cls-12" d="M1548.89,1057.25c.46-22.75,6-61.57,12.5-76.73,5.32-12.41-16.67-28-29.58-35.85l-10.91-.46q-2.49,5.43-4.68,10.79c-11.52,75.66,23,106.92,39.41,113.21,7.11,2.71,15.06,3,21.86,2.4C1567.34,1067,1557.44,1062.89,1548.89,1057.25Z"/><path class="cls-13" d="M1528,1091a51.73,51.73,0,0,1-12.15-1.47c-9.54-2.33-32.28-11.16-37.57-42.89a1.38,1.38,0,1,1,2.72-.45c5,30.1,26.5,38.46,35.5,40.65,14,3.41,28.8.27,34.48-7.31,4.56-6.07,1.81-19,1.79-19.15a1.38,1.38,0,1,1,2.69-.58c.13.58,3,14.31-2.27,21.39C1548.5,1087.45,1538.83,1091,1528,1091Z"/><path class="cls-8" d="M1635.27,969.41c-7.73,40.83-25.59,73.77-55.81,67.56s-62-49.33-53.62-90,39.63-68.67,69.85-62.46S1645.57,915,1635.27,969.41Z"/><path class="cls-8" d="M1742.83,1171.05s-55.86,150.08-58.52,165.66,2.66,25.46,4.18,25.46,49-81.31,49-81.31Z"/><path class="cls-8" d="M1745.11,1164.46c4.56-15.19-2.53-34.45-2.53-34.45l20.26,2.54Z"/><path class="cls-14" d="M1767.38,1138.54h-56.55a5.13,5.13,0,0,1-4.91-6.6l35.69-119.68a5.14,5.14,0,0,1,4.92-3.66h56.54a5.14,5.14,0,0,1,4.92,6.6l-35.7,119.68A5.13,5.13,0,0,1,1767.38,1138.54Z"/><path class="cls-15" d="M1774.47,1138.54h-56.55a5.13,5.13,0,0,1-4.91-6.6l35.69-119.68a5.14,5.14,0,0,1,4.92-3.66h56.54a5.14,5.14,0,0,1,4.92,6.6l-35.7,119.68A5.12,5.12,0,0,1,1774.47,1138.54Z"/><path class="cls-16" d="M1733.53,1051.79c-6,21.72-10.09,39.56-9.06,39.84s6.74-17.09,12.76-38.81,10.09-39.56,9.07-39.84S1739.56,1030.07,1733.53,1051.79Z"/><path class="cls-8" d="M1772,1174.09c1.67-19.74,18.77-38.24,25.27-44.14a9.31,9.31,0,0,0,3.07-7c-.09-9.84-.53-33.06-2.57-35.77-2.59-3.46-9.06-47.92-12.08-46.2s.86,40.58.86,40.58-7.34-3.45-11.22-5.18-19.86,16-19.86,16-7.49,18.92,13,10.81c24.32-9.62,6.08,17.23-10.13,34.45-13.36,14.2-2,17.34-2,17.34l10.79-.44Z"/><path class="cls-13" d="M1765.82,1189.74a20,20,0,0,1-5.88-.92c-5.29-1.65-14.52-7-17-24a1.38,1.38,0,1,1,2.74-.39c2,14.28,8.91,19.6,14.31,21.54,4.51,1.62,8.35,1,9.37.44a1.38,1.38,0,0,1,2.64-.26,1.88,1.88,0,0,1-.43,2C1770.71,1189.11,1768.53,1189.74,1765.82,1189.74Z"/><path class="cls-13" d="M1763.68,1184.85a36.06,36.06,0,0,1-5.08-.37c-9.82-1.42-16.41-6.41-18.07-13.69a1.39,1.39,0,0,1,2.7-.62c1.51,6.64,7.45,9.55,12.17,10.84,7,1.91,13.89.88,14.76-.06a1.35,1.35,0,0,1,1.86-.49,1.41,1.41,0,0,1,.51,1.91C1771.57,1184.07,1767.84,1184.85,1763.68,1184.85Z"/><path class="cls-17" d="M1600.59,990.87a12.24,12.24,0,0,1-1.9-.14c-9.7-1.49-15.58-14-13.36-28.41s11.56-24.58,21.25-23.11,15.58,14,13.37,28.41C1617.88,981.12,1609.59,990.87,1600.59,990.87Zm4.15-46.92c-6.43,0-13,8.37-14.6,19.11-1.74,11.35,2.52,21.82,9.29,22.85s14-7.67,15.7-19-2.51-21.81-9.28-22.85A6.91,6.91,0,0,0,1604.74,944Z"/><path class="cls-17" d="M1632.23,990.88a6.42,6.42,0,0,1-1-.07c-6.47-1-9.87-11.48-7.89-24.4s8.36-21.9,14.83-20.92,9.87,11.48,7.89,24.4a38.8,38.8,0,0,1-5.33,15C1638.21,988.81,1635.22,990.88,1632.23,990.88Zm5-41.78c-3.63,0-8.57,7.07-10.23,17.87-1.71,11.21,1.16,19.64,4.81,20.2,1.77.27,3.9-1.28,5.86-4.26a35.18,35.18,0,0,0,4.77-13.58c1.71-11.21-1.16-19.64-4.81-20.2A2.6,2.6,0,0,0,1637.24,949.1Z"/><path class="cls-17" d="M1590.09,953.11a2.52,2.52,0,0,1-.67-.09l-74.48-21.28a2.44,2.44,0,0,1,1.34-4.69l74.47,21.28a2.44,2.44,0,0,1-.66,4.78Z"/><path class="cls-7" d="M1643.28,906.6c-115.26,67.88-121.59,22.29-121.59,22.29l6.84-64.85,68.39,3.8Z"/><path class="cls-8" d="M1530.61,944c2.68,11.48-1,22.15-8.18,23.83s-15.21-6.26-17.89-17.73,1-22.15,8.18-23.83S1527.93,932.48,1530.61,944Z"/><path class="cls-13" d="M1522.71,959a4.54,4.54,0,1,1-4.54-4.54A4.54,4.54,0,0,1,1522.71,959Z"/><path class="cls-8" d="M1555.89,1391.93s31.15-13.68,40.27-7.6,35.47,34,35.47,34Z"/><path class="cls-15" d="M1629.91,1420.76c-.59.74-1.48,1-2,.68l-64.11-47.73c-3.46-2.57-5.1-6.5-3.44-8.58s5.86-1.33,9.13,1.47l60.62,52.09C1630.61,1419.09,1630.5,1420,1629.91,1420.76Z"/><path class="cls-8" d="M1461.66,1386.11s51.67,20.51,57.75,20.51,40-22.79,51.42-19.75,67.13,31.15,65.61,33.43-17.48,7.6-64.59,6.08S1448,1418,1448,1418Z"/></g><path class="cls-18" d="M2288.75,1748.18s-271-188.21-385.58-79.69c-91.53,86.65,70.93,188.45,278.76,161.08,146.29-19.27,162.87,8.72,188.49,8.11C2561.09,1823.07,2818,1766,2693,1676.4c-170.32-122.09-285.53,7.35-344.88,39.56Z"/><path class="cls-19" d="M2639.09,1671.88c-71.21-14.69-342.52,85.92-342.52,85.92s-236.27-71.22-292.79-78-82.53,14.7-82.53,14.7,26.67-30,57.66-32.78,75.74-10.18,75.74-10.18,452.18-21.48,512.09-7.91S2639.09,1671.88,2639.09,1671.88Z"/><path class="cls-20" d="M2254.84,1305.63c-10.74,1.69-177.77,74.55-179.82,105.07s45.76,278.13,138.22,310.35,195.9,0,195.9,0,108.52-267.9,76.3-318.77-178-96.65-178-96.65Z"/><path class="cls-20" d="M2132.08,1363.3c-159.58,85.5-198.77,239.89-156.56,273.91,29.57,23.85,141.07,76.59,237.72,73.2s187.42,5.71,187.42,5.71,165.8-33.74,198.87-83.43S2540.86,1421.6,2458.6,1375,2132.08,1363.3,2132.08,1363.3Z"/><path class="cls-8" d="M2284.23,1402.28a40.25,40.25,0,0,1-40.13-40.14V1227.07a40.13,40.13,0,0,1,80.26,0v135.07A40.25,40.25,0,0,1,2284.23,1402.28Z"/><path class="cls-12" d="M2284.23,1186.94a40.25,40.25,0,0,0-40.13,40.13v110.45c23.66,19.77,46.57,9.41,80.26-16.7v-93.75A40.25,40.25,0,0,0,2284.23,1186.94Z"/><path class="cls-8" d="M2372.31,1232.53c-6.59,13.46-17.3,20.93-23.92,16.67s-6.64-18.61,0-32.07,17.3-20.93,23.92-16.68S2378.91,1219.06,2372.31,1232.53Z"/><path class="cls-8" d="M2217,1218.13c7.62,12.25,9.09,27,3.27,33.06s-16.72,1-24.35-11.3-9.09-27.05-3.27-33.06S2209.41,1205.88,2217,1218.13Z"/><ellipse class="cls-8" cx="2286.03" cy="1231.66" rx="69.02" ry="88.87"/><path class="cls-21" d="M2436.53,1451.62c45.22,24.12,84.62,115.51,84.62,115.51s-101.74,15.82-122.84,31.65,3-6,15.07-49.74S2436.53,1451.62,2436.53,1451.62Z"/><path class="cls-21" d="M2121.72,1445c10.55,48.23,61.05,182.89,61.05,182.89s-46.77-53.27-96.47-56.28-68.14-3.77-67.83,8.29c.06,2.38,8.29-53.51,46.73-88.18S2121.72,1445,2121.72,1445Z"/><path class="cls-22" d="M2424.82,1748.69h-273a22.52,22.52,0,0,1-22.21-18.8l-32.92-196.49a22.52,22.52,0,0,1,22.21-26.24h338.88A22.52,22.52,0,0,1,2480,1533.4L2447,1729.89A22.52,22.52,0,0,1,2424.82,1748.69Z"/><path class="cls-4" d="M2424.82,1748.69h-273c-11,0-20.39-7.66-22.21-18.12l-32.92-189.4c-2.3-13.23,8.29-25.29,22.21-25.29h338.88c13.93,0,24.52,12.06,22.22,25.29L2447,1730.57C2445.21,1741,2435.82,1748.69,2424.82,1748.69Z"/><path class="cls-19" d="M2324.36,1826.1c-1.63-.28-176.34-44-215.34-11.79s130.56,32.76,161.08,25.71S2324.36,1826.1,2324.36,1826.1Z"/><path class="cls-19" d="M2363.36,1833.94s37.3-28.11,86.48-23,91.56,15.81,49.17,29.1-86.48,15-106.82,13.29S2363.36,1833.94,2363.36,1833.94Z"/><path class="cls-23" d="M2264,1106.39c-44.84,13.6-29.23,139.81,22,135.65s53.34-58.73,49.7-94.07S2310.26,1092.35,2264,1106.39Z"/><path class="cls-23" d="M2247.89,1199.94c-12.47-12-29.62,25.67-22.87,42.2s-2.69,26.15,6.45,43.95-16.84-11.31-20.48-32.62-5.72-58.21-10.91-74.84.26-45.47,23.42-51.45,28.55-16.64,37.39-17.16,50.93,3.64,71.72,15.08,32.23,28.58,30.67,54.57-8.32,92.52-14.56,103.43-9.46,8.33-7.59,2.09,8.63-43.67,3.44-57.18-2.6-46.78-16.11-49.38-10.4,20.45-26.51,22.18S2247.89,1199.94,2247.89,1199.94Z"/><path class="cls-24" d="M2002.17,918.68H1756a14.09,14.09,0,0,1-14.09-14.27l1.3-102.29a14.53,14.53,0,0,1,14.45-14.27h246.19a14.09,14.09,0,0,1,14.09,14.27l-1.29,102.29A14.54,14.54,0,0,1,2002.17,918.68Z"/><path class="cls-17" d="M1990.07,908H1768.36a12.2,12.2,0,0,1-12.2-12.36l1.07-84.69a12.58,12.58,0,0,1,12.52-12.36h221.7a12.22,12.22,0,0,1,12.21,12.36l-1.08,84.69A12.58,12.58,0,0,1,1990.07,908Z"/><path class="cls-24" d="M1851.6,912.73c-1.48,53.92-27.06,70.57-27.06,70.57s11.49-30.92,3-46a54.85,54.85,0,0,0-22.72-21.41Z"/><path class="cls-24" d="M1980,828.69H1837.1a4.21,4.21,0,0,1-4.2-4.27v-.19a4.34,4.34,0,0,1,4.31-4.27h142.92a4.21,4.21,0,0,1,4.21,4.27v.19A4.34,4.34,0,0,1,1980,828.69Z"/><path class="cls-24" d="M1979.79,846.92H1836.87a4.21,4.21,0,0,1-4.2-4.26v-.2a4.34,4.34,0,0,1,4.31-4.26H1979.9a4.21,4.21,0,0,1,4.21,4.26v.2A4.34,4.34,0,0,1,1979.79,846.92Z"/><path class="cls-24" d="M1979.53,867.54H1836.61a4.22,4.22,0,0,1-4.21-4.26v-.2a4.33,4.33,0,0,1,4.31-4.26h142.92a4.2,4.2,0,0,1,4.21,4.26v.2A4.34,4.34,0,0,1,1979.53,867.54Z"/><path class="cls-24" d="M1820,843.35c-.2,15.55-10.65,28.15-23.35,28.15s-22.83-12.6-22.64-28.15,10.65-28.14,23.35-28.14S1820.17,827.81,1820,843.35Z"/><path class="cls-24" d="M2207.92,1105H1958.57a14.27,14.27,0,0,1-14.27-14.45l1.31-103.6a14.72,14.72,0,0,1,14.64-14.45H2209.6a14.27,14.27,0,0,1,14.27,14.45l-1.31,103.6A14.72,14.72,0,0,1,2207.92,1105Z"/><path class="cls-17" d="M2195.66,1094.12H1971.11a12.36,12.36,0,0,1-12.36-12.52l1.08-85.78a12.76,12.76,0,0,1,12.68-12.52h224.55a12.36,12.36,0,0,1,12.36,12.52l-1.09,85.78A12.74,12.74,0,0,1,2195.66,1094.12Z"/><path class="cls-24" d="M2089.41,1098.94c.11,54.61,25.59,71.47,25.59,71.47s-10.84-31.32-1.81-46.58a57.58,57.58,0,0,1,23.56-21.68Z"/><path class="cls-24" d="M2109,1021H1986.9a3.93,3.93,0,0,1-3.93-4v-.89a4.05,4.05,0,0,1,4-4h122.14a3.93,3.93,0,0,1,3.93,4v.89A4.05,4.05,0,0,1,2109,1021Z"/><path class="cls-24" d="M2108.81,1039.51H1986.66a3.92,3.92,0,0,1-3.92-4v-.89a4.05,4.05,0,0,1,4-4h122.14a3.92,3.92,0,0,1,3.92,4v.89A4,4,0,0,1,2108.81,1039.51Z"/><path class="cls-24" d="M2108.54,1060.39H1986.4a3.93,3.93,0,0,1-3.93-4l0-.89a4,4,0,0,1,4-4h122.15a3.92,3.92,0,0,1,3.92,4v.89A4.05,4.05,0,0,1,2108.54,1060.39Z"/><path class="cls-24" d="M2167.84,1067.62h-17.67a14.27,14.27,0,0,1-14.27-14.46l.46-36.13a14.72,14.72,0,0,1,14.63-14.46h17.67a14.28,14.28,0,0,1,14.27,14.46l-.45,36.13A14.72,14.72,0,0,1,2167.84,1067.62Z"/><g class="cls-25"><circle class="cls-6" cx="953.1" cy="538.34" r="380"/><path class="cls-26" d="M777.49,478.39c50.27,36.3,158.25,52.13,192.69,54s-19.12,96.81-19.12,96.81-92.58,11.17-136.33,0S777.49,478.39,777.49,478.39Z"/><path class="cls-7" d="M691.23,1419.83c.62,24.82,14.77,39.59,37.85,56.78,24.21,18,25.45,20-8.06,24.43s-42.83-10.78-65.17-17.29-8.06-22.35-9.31-37.24-3.35-39.1-3.35-39.1Z"/><path class="cls-7" d="M886.71,1407.41a374.56,374.56,0,0,0,34.76,34.38c19.86,17.13,70.12,23,45.92,29.36s-51.31,2.94-76.24,6.53-46.64.11-48.5-6.53,0-53.81,0-53.81Z"/><path class="cls-27" d="M955.3,321.34c31.15-29.58,88.42,8.12,93.82,33.19,13.89,64.49,20,131.17,3.13,157.37s-156.11,33.61-165.58,33.38c-12.74-.31-20.17-43.5,4.76-71.81s36-79.34,40.6-105.48C937.52,336.55,950.31,326.07,955.3,321.34Z"/><path class="cls-27" d="M1065.93,496h-.21a1.51,1.51,0,0,1-1.28-1.69c7.31-52.7-2.46-113-24.31-150a1.5,1.5,0,0,1,2.59-1.52c22.16,37.58,32.08,98.65,24.69,152A1.49,1.49,0,0,1,1065.93,496Z"/><path class="cls-27" d="M1074.93,461.47h-.1a1.5,1.5,0,0,1-1.4-1.59c3-47.73-20.79-107.54-42.45-125.24a1.5,1.5,0,1,1,1.9-2.32c22.2,18.14,46.58,79.17,43.54,127.75A1.5,1.5,0,0,1,1074.93,461.47Z"/><path class="cls-28" d="M891,509.83C880.35,585,870.11,726.47,839.39,760.91s-47.81,116.58-47.81,116.58S890.85,823.28,931.48,690c12.75-41.81-18.35-139.45-25.9-148.76S891,509.83,891,509.83Z"/><path class="cls-8" d="M1106.09,716.23c-6.13,7.45-22.57,43.55-30.91,43.55-28.39,0-30.48,11.13-45.89,19.28-19.78,10.48-15.59,26.53-14.19,27.46s43.49-6.44,57.62-15.64c11.73-7.65,20.07-11.82,25.79-20.19s38.1-32.59,38.1-32.59Z"/><path class="cls-29" d="M1077.37,493.31c28.72,17.35,34,33.48,62.24,82.51s33.2,66.71,44.37,84.4,14.89,38.17-8.69,60.51c-22.53,21.34-33,30-45.41,26.71-8.32-2.25-14.9-26.51-26.48-22.11s8.9-29.74,19.45-39.36c5.75-5.23,8.07-4.83,6.21-7.22s-37.24-28.77-66.72-66.94S1077.37,493.31,1077.37,493.31Z"/><path class="cls-28" d="M1167.53,676.67c-14-6.28-31.44-5.39-44.27-2.95,3.3,2.77,5.38,4.49,5.8,5,1.86,2.39-.46,2-6.21,7.22a63.11,63.11,0,0,0-6.92,7.86c9.78-5.18,20.49-9.83,29.26-11.11,22.34-3.26,23.74,2.79,35.37,10.24S1190.34,686.91,1167.53,676.67Z"/><path class="cls-28" d="M1106.25,519.28c-7.69-10.51-15.88-18.12-28.88-26,0,0-44.51,80.34-15,118.5a350.75,350.75,0,0,0,28.59,32.39C1091.54,618.49,1094.24,561,1106.25,519.28Z"/><path class="cls-29" d="M968.06,466.75c-38.47,8.69-69.52,20-77.47,42.36-3.85,10.83,18.47,189.59,40.81,209.44,43.12,38.33,114.19,2.49,114.19,2.49s32.27-80.37,45.07-215.28c3.33-12.17-73.62-36.06-86-38.55S968.06,466.75,968.06,466.75Z"/><path class="cls-8" d="M981,1415s-52.73,73-21.08,70.4,52.32-35.17,52.32-35.17,11,37,42.63,35.23,13.8-21.07,0-43.67a99.13,99.13,0,0,1-13.72-43.73Z"/><path class="cls-8" d="M985.54,501.66a23.8,23.8,0,0,1-23.73-23.74V389.49a23.74,23.74,0,1,1,47.47,0v88.43A23.81,23.81,0,0,1,985.54,501.66Z"/><path class="cls-12" d="M985.54,365.75a23.8,23.8,0,0,0-23.73,23.74v40a147.63,147.63,0,0,0,47.47,43.8V389.49A23.81,23.81,0,0,0,985.54,365.75Z"/><ellipse class="cls-8" cx="1004.33" cy="387.4" rx="42.79" ry="58.83" transform="translate(-61.93 239.61) rotate(-13.2)"/><path class="cls-8" d="M936.74,707.91s-74,55.85-50.27,238.76S935.34,1124,936.74,1212s39.09,209.44,61.43,233.18,77.2-103.51,77.2-216.46c0-66,0-97.7,15.39-201s12.13-254.12-49.3-319.75S936.74,707.91,936.74,707.91Z"/><path class="cls-12" d="M996.67,1117c-.06-43.28-14.38-135.28-11.13-262.45l-94.39,125.8c22.25,148.93,44.28,149.45,45.59,231.64,1,66.66,23,152.54,43.22,200.57,13.18,4.73,22,10.28,24.37,17.25,3.13,9.33,5.21,14.5,6.45,16,.44-.29.89-.6,1.34-.94,1.09-7.79-4.57-47.54-10.75-105.38C990.91,1241.68,996.74,1160.25,996.67,1117Z"/><path class="cls-29" d="M903.49,642.58c12.3,72.31,4.91,82.09-12.34,142.13s-17.47,219.21-17.47,219.21,46.77,19.55,137.29,11.17,103.09-18.15,103.09-18.15-10.29-155-23.3-201.06-33.34-77.59-34.34-107.21S903.49,642.58,903.49,642.58Z"/><path class="cls-30" d="M959.94,1485.4c31.65-2.59,52.32-35.17,52.32-35.17s11,37,42.63,35.23c27.19-1.47,17.86-16,5.94-34.33-1.08,4.13-4.45,8-13.38,7.64-18.7-.72-36.26-23.43-36.26-23.43s-32.63,25.13-44.73,23.34,5.89-30.89,5.9-30.91C958.89,1448.57,936.74,1487.29,959.94,1485.4Z"/><path class="cls-27" d="M739.84,418.86c-14.71-20.65-29.47-76.86-16.35-82.6s9.85-14.77,23-31.59,66-23.38,81.64,4.92,22.27,31.18,22.82,46.36-36.77,52.92-36.77,52.92Z"/><path class="cls-8" d="M1086.6,748.59c-4.29,6.42-8.39,11.19-11.42,11.19-28.39,0-30.48,11.13-45.89,19.28-19.78,10.48-15.59,26.53-14.19,27.46s43.49-6.44,57.62-15.64c11.73-7.65,20.07-11.82,25.79-20.19a43.48,43.48,0,0,1,5.79-6.26A130.42,130.42,0,0,1,1086.6,748.59Z"/><path class="cls-8" d="M749.56,346.2s-9.31,114.6-29.79,127.12-59.57,59.06-54,159.59,13,143.9,20.48,182.73,147.08,15.17,162,0,31.65-153.87,0-224.15-67-110-70.75-127.38S798,376.92,798,376.92Z"/><path class="cls-12" d="M777.11,460.35c-.47-21.91,20.86-83.43,20.86-83.43L749.56,346.2s-2,25-6.27,52.89C749.56,437.89,762.13,452.79,777.11,460.35Z"/><path class="cls-8" d="M837.94,378.39c4.67,33.67-6.93,60-31.17,63.38s-51.94-17.55-56.6-51.22,11.2-63.67,35.44-67S833.28,344.73,837.94,378.39Z"/><path class="cls-8" d="M1103.69,507.24c14.26,8.86,25.12,31,18.88,49s-14.88-5.09-24.38-18.31S1093,500.62,1103.69,507.24Z"/><path class="cls-30" d="M850.17,748.13C840.39,865.69,873.45,1131,873.68,1191s24.2,224.21,24.2,224.21-39.09,11.23-54.45,12.54S783.71,1279,777.15,1199.4s-48.08-220.83-48.08-220.83l14.22-242.31Z"/><path class="cls-15" d="M850.17,748.13,743.29,736.26,729.07,978.57s41.51,141.24,48.08,220.83c.08,1,.18,2.09.27,3.15.8-122.66,36.47-175.91,74.15-305.79C848.33,839.72,847,786.19,850.17,748.13Z"/><path class="cls-30" d="M846,787.5c-50.27,170.34-96.34,330.91-127.06,437s-21.49,215.2-21.49,215.2l-51.66,4.12s-58.1-174.91-19-269.59,20.5-151.7,27.92-240.15c8.38-99.78,22.47-172.69,22.47-172.69Z"/><path class="cls-31" d="M848.24,591.49c-17-37.75-35.07-66.67-48.73-88.06a189.76,189.76,0,0,0-22.35-1.77c-14.4-.29-39.49-18.77-54.45-30.91a13.21,13.21,0,0,1-2.94,2.57c-20.48,12.51-59.57,59.06-54,159.59s-15.51,134.87-8.06,173.69,175.62,24.21,190.52,9S879.89,661.77,848.24,591.49Z"/><path class="cls-31" d="M717.29,449.22l-15.12,39.87L798,528,809,518.54S794.25,497,798,484s8.07-16.76,0-19.86-36.76-8.07-54.68-14.89S720.41,441,717.29,449.22Z"/><path class="cls-26" d="M866.22,710.47c-1.9-29.93-8-96.69-18-119-3.7-8.21-7.45-16-11.19-23.37L825,562.87s-67-53.51-110.77-43.52-45.61,173-20.48,190.83S729.07,680.28,822,695.1C837.15,697.52,853.83,711.65,866.22,710.47Z"/><path class="cls-30" d="M1022.89,758.55a4.64,4.64,0,0,0,6.47-1l197.47-268.21a4.63,4.63,0,1,0-7.45-5.49L1021.91,752.08A4.64,4.64,0,0,0,1022.89,758.55Z"/><path class="cls-15" d="M1238.17,493.31h-32.92a10,10,0,0,1,0-19.94h32.92a10,10,0,1,1,0,19.94Z"/><path class="cls-27" d="M1228.45,394.9l31.71,5.35a9.27,9.27,0,0,1,6.91,12.95l-30.73,68.2a9.28,9.28,0,0,1-11.52,4.94l-27.92-9.76a9.28,9.28,0,0,1-5.48-12.36l26.94-63.79A9.28,9.28,0,0,1,1228.45,394.9Z"/><path class="cls-30" d="M1226.52,400.36l26.24,4.71c5,.9,7.78,6.54,5.72,11.42l-25.43,60.08a7.52,7.52,0,0,1-9.53,4.35l-23.1-8.6a8.33,8.33,0,0,1-4.53-10.89l22.29-56.19A7.59,7.59,0,0,1,1226.52,400.36Z"/><path class="cls-32" d="M1206.33,394.22a1.56,1.56,0,0,1-.69-.17l-35.12-18.33a1.5,1.5,0,1,1,1.39-2.66L1207,391.39a1.5,1.5,0,0,1-.7,2.83Z"/><path class="cls-32" d="M1212.84,386.84a1.52,1.52,0,0,1-1.21-.62l-24.76-33.72a1.5,1.5,0,1,1,2.42-1.77l24.76,33.72a1.51,1.51,0,0,1-1.21,2.39Z"/><path class="cls-32" d="M1160.88,431.44a1.5,1.5,0,0,1-.46-2.92l42.94-13.71a1.5,1.5,0,1,1,.91,2.86l-42.94,13.7A1.41,1.41,0,0,1,1160.88,431.44Z"/><path class="cls-32" d="M1206,407h-.21c-32.7-4.68-50.6-7.51-53.19-8.42a1.5,1.5,0,0,1,1-2.83c1.35.48,10,2.19,52.61,8.28a1.5,1.5,0,0,1,1.27,1.7A1.48,1.48,0,0,1,1206,407Z"/><path class="cls-33" d="M1195.89,461.43a8.33,8.33,0,0,0,4.53,10.89l2.8,1.05L1243,453.16l15.53-36.67a8.62,8.62,0,0,0,.48-5.13l-60.87,44.52Z"/><path class="cls-33" d="M1204.3,473.77l19.22,7.15a7.52,7.52,0,0,0,9.53-4.35l6.66-15.74C1228.3,464.76,1213.18,470.41,1204.3,473.77Z"/><path class="cls-8" d="M1033.21,634.16l53.06-2.43s27.13-33.73,38.1-26.86,30-5.37,29.85,6.87-15.52,44.06-33.93,47.32-60.51,0-60.51,0Z"/><path class="cls-31" d="M729.61,509.83c31.08,2.18,136.85,95.1,184.94,129.8,66.08-10.75,145.23-9.94,145.23-9.94s16.44,31,15.4,33.45S968,702.45,905.24,699.86s-91.64-22.27-139.51-28c-31.17-3.72-46.32,9.22-63.56-8.74s-23.31-110.07-13.89-128.65S716.27,508.89,729.61,509.83Z"/><path class="cls-27" d="M739.84,418.86c16.44-8.12,8.27-23.92,9.71-34.39s-3.14-18.85.79-18.15,3,40.2,8,39.94,3.12-29.8,8.34-30.62,7.28-8.17,3.18-21.11-.82-24.42,10.26-14.17,35.69,34.05,50,30.77,13.54-18.05,12.3-19.69-38.15-43.08-38.15-43.08l-73,41.85-2,38.15Z"/><path class="cls-8" d="M753,374.06c1,9.92,1.31,25,2.18,27.13-6.51,2.65-14.84-2.68-18.6-11.91s-3.42-21.34,3.17-23.79C743.8,364,751.8,362.52,753,374.06Z"/><path class="cls-27" d="M1042,351.79c-10.36,33.51-68.07,34-70.87,43.28s-3.47,45.47-11.92,68.5c-13.5,36.8-19.55,48.95-38.34,54.53s-26.7-25.54-26.7-25.54,33.68-44.43,35.54-45.36,19.59-114.5,19.59-114.5,45.11-8.27,47.43-9.49,34.91,13.22,34.91,13.22Z"/></g><g class="cls-34"><circle class="cls-6" cx="2398.12" cy="506.52" r="351.03" transform="translate(344.23 1844.08) rotate(-45)"/><path class="cls-35" d="M2340.09,521.05s-12.29,11.45-27.65,4.05-71.46-47-69.76-56.72,27.92-12,27.92-12S2351.81,520.59,2340.09,521.05Z"/><path class="cls-36" d="M2325.31,519.56c10.52-1.68-24.09-29.21-35.41-40.59s-18.62-16.7-18.62-16.7-19.35,2.36-19.35,6.11,55.49,48.07,55.49,48.07S2320.56,520.32,2325.31,519.56Z"/><path class="cls-8" d="M2393.23,569.08s-20.2-34.14-29.87-43.25S2321,499.08,2316.07,499c-8.48-.19,29.08,25.15,29.08,25.15s-5.12,33-.57,45S2396.93,597,2396.93,597Z"/><path class="cls-37" d="M2430.79,604.91s-33-49.5-40.4-46.09-27.32,46.09-27.32,46.09,58,60.32,58,48.94S2430.79,604.91,2430.79,604.91Z"/><path class="cls-8" d="M2522.06,339.78s34.14,120.64,56.9,170.71,34.15,143.4,29.59,307.28,27.32,159.34-20.48,179.82-218.51-13.65-241.28-66,15.25-265.49,71.7-343.7c55.74-77.21,80.81-104.7,80.81-122.91s-22-95.6-22-95.6Z"/><path class="cls-38" d="M2346.79,931.58c-22.76-52.35,15.25-265.49,71.7-343.7,26-36,45.26-61.13,58.48-79.6,27-16.13,56.87-31.16,85.5-39.9,5.73,16.15,11.4,30.9,16.49,42.11,22.77,50.08,34.15,143.4,29.59,307.28s27.32,159.34-20.48,179.82S2369.56,983.94,2346.79,931.58Z"/><path class="cls-38" d="M2582.76,446.76c-.57-9.37-122.16,38.7-122.92,47.8s-7.93,43.07-18,61.37,169.27,120.51,162.68,70.74S2584.27,471.8,2582.76,446.76Z"/><path class="cls-12" d="M2499.19,467a20.19,20.19,0,0,0,.11-2c0-18.21-22-95.6-22-95.6l44.79-29.59s7.93,28,18.69,62.63C2526.83,444,2513.81,458.14,2499.19,467Z"/><path class="cls-8" d="M2396.46,398.84c9.46,42.9,39.09,73.41,73.34,65,25.11-6.15,63.72-41.28,51.34-92.53-10.31-42.7-45-71.51-79.48-63.92S2387,356,2396.46,398.84Z"/><path class="cls-8" d="M2357.58,678.11C2326.5,624.44,2323,574.31,2301,558.65c-31-22-56.42-71.27-45.2-73.22s56.63,39.67,56.63,39.67-11.82-16.18-9-17.53,25.7,15.26,29.25,34.87,47.48,109.77,84.35,138.65S2388.66,731.79,2357.58,678.11Z"/><path class="cls-37" d="M2558.92,542.88c55.07,13.71,29.88,180-16.55,278.65s-133.68,13.42-166.3-10.74c-12.39-9.17-20.55-18.47-25.92-26.48,10.47-58.86,28.43-122,50.6-166.43C2452.72,678.89,2477.44,522.59,2558.92,542.88Z"/><path class="cls-38" d="M2542.37,530.94c69.25,6.94,31.33,179.82-19.31,249.62s-122.71,2.27-145.48-37.94S2308.73,634,2308.73,589.55c0-8.35,17.07-10,37.56-8.54,19.29,1.43,106.43,121.4,106.43,121.4S2481.82,524.87,2542.37,530.94Z"/><path class="cls-23" d="M2375.31,309.39c-42.35,17.83-17,74.22,5.35,76.34s48.14-39.06,61.4-40.45-2.68,23,9.12,28.6,22.82,14.86,26.26,29.51,12.87,46.55-2.54,47.94-32.15-15.35-42.61-16.05a57.36,57.36,0,0,0-19.56,2.33s26.58,36.75,46.1,38.84,40.8-26.43,56-50.55,8.73-40.17,8.73-40.17,15.51,17.46,25.28,16.06-14.65-15.35-15.35-56.51-18.84-62.8-41.17-62.8-19.53-11.36-53.63-10.46C2407.93,272.82,2385.24,305.21,2375.31,309.39Z"/><path class="cls-8" d="M2468.42,393.51c-1,10.63,4.47,19.82,12.19,20.54s14.77-7.32,15.76-17.95-4.47-19.82-12.19-20.54S2469.41,382.88,2468.42,393.51Z"/></g><g class="cls-39"><circle class="cls-6" cx="3058.64" cy="1130.78" r="251.24" transform="translate(96.27 2493.99) rotate(-45)"/><path class="cls-7" d="M3019.08,1011.07c-19.15,38.29-3.3,82.38,34.36,98,37.9,15.68,79.35,6.77,98.5-31.52s4.92-84.2-31.77-102.54S3038.22,972.79,3019.08,1011.07Z"/><path class="cls-7" d="M3122.27,1114.09a12.39,12.39,0,0,1-3.15-.33,2.44,2.44,0,0,1,1.33-4.69c.06,0,8.87,2.08,22.06-9.62,14.9-13.22,25.32-43.25,9.89-87.88a2.43,2.43,0,1,1,4.6-1.59c20.41,59-3.45,86.19-11.25,93.11C3135.06,1112.57,3126.59,1114.09,3122.27,1114.09Z"/><path class="cls-40" d="M3063.74,1160.06c-21.79,4.89-49.31,65.44-62.78,104.23-13.59,39.13-36.62,87.67-51.71,102.75s-114.18,50-114.18,50,244.87.47,239.85,0S3063.74,1160.06,3063.74,1160.06Z"/><path class="cls-41" d="M2933.74,1397.63c13.41-1.91,61.76,4.31,41.18-4.3s-17.72-19.63-17.72-19.63,29.21,24.41,34.47,3.06c4.54-18.41,6.28-83.41,23.52-148.56,14.24-32.31,32.87-64.62,48.55-68.14,0,0,.55,22.94,1.46,55.11-6,71.17-16.22,175.75-18.81,202.1-32.46.06-86.78,0-132.22-.06l-30.22-1.44S2920.33,1399.55,2933.74,1397.63Z"/><path class="cls-40" d="M3143.85,1146.64s69.32,38.74,85.48,47-45.27,250-58.93,260.37-133.94,1.78-147.63-11.27,10.51-53.12-1.34-133.33,36.14-149.47,42.31-149.32,46.4-13.42,46.4-13.42Z"/><path class="cls-41" d="M3170.4,1454c-13.66,10.36-99.73,10.59-136.36-.81-4.14-1.28-22.91-8.76-23.35-15.8,4.42-.83,22,1.28,29.1-.36,24.78-5.69,38.42-36.38,38.42-36.38s13.65-4.91,44.17-17.84,17.95-52.07,18.67-69.3,30.17-73.61,85.47-116.35l5.07,2.28C3235.53,1238.71,3183,1444.39,3170.4,1454Z"/><path class="cls-8" d="M3101.31,1393.8c-43.57,8.14-54.28,18.15-78,22-26.92,4.34-23.72,10.29-3.73,10.29s70.25.78,87.5-3S3101.31,1393.8,3101.31,1393.8Z"/><path class="cls-40" d="M3234.77,1198.15c33.4,106.77,80.74,227.91,73.19,227.91s-199.28,7.75-206.82,1.3-5.39-31.23-4.31-34.46,109-22.39,109-22.39-14.21-27.7-19.6-81.83S3228.44,1177.9,3234.77,1198.15Z"/><path class="cls-8" d="M3118.47,1053.87l26.89,98.29s-45.45,70.95-57.94,64.65,7-57.67,7-64.65-19.48-79-19.48-79Z"/><path class="cls-12" d="M3093.47,1157.17a26,26,0,0,0,.93-5c0-7-19.48-79-19.48-79l43.55-19.3,8.9,32.53C3119.59,1120,3105.56,1142.38,3093.47,1157.17Z"/><path class="cls-8" d="M3017.82,1052.24c-5.13,28.51-1.75,66.36,23.56,76s55.8-8.79,68.1-41.13,1.75-66.36-23.56-76S3023.94,1018.19,3017.82,1052.24Z"/><ellipse class="cls-8" cx="3116.78" cy="1073.02" rx="19.15" ry="14.12" transform="translate(1060.68 3649.48) rotate(-70.41)"/><path class="cls-7" d="M3017.52,1016.43c8.62,66.89,89.88,58.27,89.88,58.27s16.76-22,24.31-10.47-10.47-67.82-57.1-70.32C3059.29,993.09,3017.52,1016.43,3017.52,1016.43Z"/><ellipse class="cls-7" cx="3144.13" cy="988.16" rx="44.01" ry="41.29"/></g><g class="cls-42"><circle class="cls-6" cx="522.44" cy="1482.09" r="315.09"/><path class="cls-35" d="M675.59,1456.71s9.87,9.19,22.22,3.25,57.42-37.8,56-45.57-22.43-9.64-22.43-9.64S666.17,1456.34,675.59,1456.71Z"/><path class="cls-36" d="M687.46,1455.51c-8.45-1.35,19.36-23.47,28.45-32.62a140.89,140.89,0,0,1,15-13.41s15.54,1.89,15.54,4.91S701.84,1453,701.84,1453,691.28,1456.12,687.46,1455.51Z"/><path class="cls-8" d="M632.89,1495.3s16.23-27.44,24-34.75,34-21.5,38-21.59c6.81-.15-23.37,20.22-23.37,20.22s4.12,26.52.46,36.12-42.07,22.4-42.07,22.4Z"/><path class="cls-43" d="M602.71,1524.09s26.52-39.78,32.46-37,22,37,22,37-46.64,48.47-46.64,39.32S602.71,1524.09,602.71,1524.09Z"/><path class="cls-8" d="M529.37,1311.05s-27.43,96.94-45.72,137.17-27.43,115.23-23.78,246.91-21.94,128,16.46,144.48,175.58-11,193.87-53S658,1573.25,612.59,1510.41c-44.79-62.05-64.93-84.13-64.93-98.77s17.7-76.81,17.7-76.81Z"/><path class="cls-44" d="M670.2,1786.57c18.29-42.06-12.25-213.32-57.61-276.16-20.86-28.9-36.37-49.12-47-64-21.71-13-45.69-25-68.7-32-4.6,13-9.16,24.82-13.25,33.83-18.29,40.24-27.43,115.23-23.78,246.91s-21.94,128,16.46,144.48S651.91,1828.64,670.2,1786.57Z"/><path class="cls-45" d="M480.6,1397c.46-7.52,98.15,31.1,98.76,38.41s6.38,34.61,14.47,49.31-136,96.83-130.71,56.84S479.38,1417.13,480.6,1397Z"/><path class="cls-12" d="M547.75,1413.28a15.3,15.3,0,0,1-.09-1.64c0-14.63,17.7-76.81,17.7-76.81l-36-23.78s-6.37,22.51-15,50.33C525.54,1394.77,536,1406.16,547.75,1413.28Z"/><path class="cls-8" d="M619.94,1358.35c-6.65,30.13-27.46,51.56-51.51,45.67-17.64-4.32-44.76-29-36.06-65,7.24-30,31.64-50.23,55.82-44.89S626.59,1328.22,619.94,1358.35Z"/><path class="cls-8" d="M661.53,1582.91c25-43.13,27.76-83.41,45.46-96,24.89-17.7,45.33-57.27,36.32-58.83s-45.5,31.87-45.5,31.87,9.49-13,7.22-14.08-20.64,12.25-23.49,28-38.16,88.2-67.78,111.4S636.56,1626,661.53,1582.91Z"/><path class="cls-46" d="M499.76,1474.24c-44.26,11-24,144.65,13.29,223.9s107.41,10.79,133.63-8.63a87,87,0,0,0,20.82-21.27c-8.41-47.29-22.84-98-40.65-133.73C585.09,1583.53,565.23,1458,499.76,1474.24Z"/><path class="cls-47" d="M513.05,1464.65c-55.64,5.58-25.17,144.49,15.52,200.57s98.6,1.83,116.89-30.48,55.32-87.25,55.32-123c0-6.71-13.71-8.08-30.17-6.86-15.5,1.15-85.52,97.54-85.52,97.54S561.71,1459.77,513.05,1464.65Z"/><path class="cls-23" d="M597.78,1264.82c58.08,4,50.66,94,50.66,94s-47.9,1.39-62.18-2.76-28.83-15.33-28.83-15.33-8.79,34.1-32.8,36l-24,1.9s-15.84-64.72-3.32-93.91C523.28,1224.19,575.13,1254.49,597.78,1264.82Z"/><path class="cls-8" d="M534.42,1352c3.44,8.84,11.57,13.94,18.17,11.37s9.16-11.81,5.72-20.66-11.58-13.94-18.17-11.38S531,1343.14,534.42,1352Z"/><path class="cls-23" d="M505.73,1341.63a1.73,1.73,0,0,0-3.33-.68c-5.24,12.23-16.24,33.45-29.95,35-19.33,2.11-157.28,13.36-111.37,119.81,29,67.26,50,94.1,21.49,119-26.24,22.91-60.86,1.34-69.5-4.44a1.73,1.73,0,0,0-2.67,1.16c-2.44,14.82-10.51,85.81,58.27,84.79,76.78-1.14,113.43-70.54,82.15-134.21s30.7-80,33.23-115.74c2.45-34.45.62-51.86.12-55.69a1.73,1.73,0,0,1,.48-1.43l20.58-21.09a1.72,1.72,0,0,0,.5-1.21Z"/><path class="cls-23" d="M353.8,1622c-15.63,0-40.21-6.38-41.32-6.67a2.44,2.44,0,0,1,.83-4.79c.33,0,33.37,2.86,46.28-7.31,16.3-12.86,7.19-33.86-7.9-68.67-6.37-14.7-13.6-31.36-20.23-50.63-12.58-36.52.93-61.63,14.48-76.25,28.44-30.71,83.86-43.92,131.77-31.42a2.44,2.44,0,0,1-1.23,4.72c-1.12-.29-2.24-.57-3.37-.83-60.95,1-100.28,15.17-116.88,42-14.53,23.51-11.54,57,8.89,99.56,19.94,41.53,25.29,70.74,15.91,86.82-4.66,8-13,12.59-24.11,13.33C355.93,1622,354.89,1622,353.8,1622Zm-17.93-6.7c7.36,1.23,15.09,2.12,20.73,1.74,9.55-.64,16.36-4.31,20.22-10.93,5.86-10,7.82-32.45-16.09-82.25-21.2-44.15-24.11-79.21-8.65-104.23,15-24.29,47-38.72,95.21-43-38-1.76-76.1,11-97.78,34.4-18.13,19.58-22.78,44.25-13.45,71.36,6.58,19.08,13.76,35.65,20.1,50.27,15.47,35.69,25.69,59.26,6.44,74.43C356.07,1612.2,345.56,1614.42,335.87,1615.3Z"/></g><g class="cls-48"><circle class="cls-49" cx="1620.98" cy="385.34" r="153"/><path class="cls-50" d="M1573.64,371.22c-.38-1.14-9.89-55.72-11-77S1596.73,270,1596.73,270s28.81-15.54,49.66-7.58,35,21.35,44.51,38-8.34,68.66-8.34,68.66Z"/><path class="cls-17" d="M1508.29,546.59c-.14-.89,2.43-22.38,2.52-23.25,4.8-45.23,60.56-58,116.2-58,65.37,0,109.72,12,116.79,59,.21,1.38,4,22.92,3.79,24.37C1626.44,550.38,1508.29,546.59,1508.29,546.59Z"/><path class="cls-8" d="M1638.23,500.5c-6.47,9.56-11.22,10-18.25,0-5.59-7.92-24.26-26-24.26-35.11l7.66-91a16.65,16.65,0,0,1,16.6-16.6h18.25a16.65,16.65,0,0,1,16.6,16.6l3.56,91C1658.39,474.52,1644,491.92,1638.23,500.5Z"/><path class="cls-12" d="M1638.23,357.76H1620a16.65,16.65,0,0,0-16.6,16.6l-6.65,80.75c20.5,6.53,48.18-6.73,60.42-21.35l-2.32-59.4A16.65,16.65,0,0,0,1638.23,357.76Z"/><path class="cls-51" d="M1566.45,472l29.27,54.09s15.67-12.89,17.18-10.36-2.78,34.42-2.78,34.42,34.88.47,36.39-1-7.07-34.64-3.54-34.64,14.18,9.6,14.18,9.6L1689.83,472l-7.18-1.75-53.54,28.8-57.27-28.17Z"/><polygon class="cls-26" points="1599.92 496.95 1621.66 511.54 1614.92 550.25 1644.24 548.61 1636.92 513.4 1654.93 496.95 1646.47 488.98 1608.39 488.98 1599.92 496.95"/><path class="cls-17" d="M1597.24,445.51l-26.89,25.58s27.39,48.72,28.91,48.72S1622.5,493,1622.5,493l13.91-.24,22,23.05,25.54-45.17-26-27.61s-22.23,43-26.28,44-4.07,1.52-7.34-1S1597.24,445.51,1597.24,445.51Z"/><ellipse class="cls-8" cx="1629.11" cy="358.69" rx="55.18" ry="75.19"/><path class="cls-8" d="M1579.57,357.53c5.16,10.87,3.47,22.46-3.77,25.91s-17.3-2.58-22.46-13.45-3.48-22.47,3.77-25.91S1574.41,346.66,1579.57,357.53Z"/><path class="cls-8" d="M1676.15,357.53c-5.16,10.87-3.47,22.46,3.77,25.91s17.31-2.58,22.47-13.45,3.47-22.47-3.78-25.91S1681.31,346.66,1676.15,357.53Z"/><path class="cls-17" d="M1653.59,389.54s-11,17.75-24.48,17.75-24.49-17.75-24.49-17.75Z"/><path class="cls-50" d="M1596.73,307.54c22.74-15.92,33-13.27,50,12.88S1684.29,347,1684.29,347l2.65-27.12s-25.4-49.15-59.51-42.71-53.51,37.15-53.51,37.15-1.66,57.55,3.1,59.51,5.31-18.57,8.72-22.74-3.41-23.88,1.14-33S1596.73,307.54,1596.73,307.54Z"/><path class="cls-50" d="M1669.89,337.1c7.94,8.7,4.92,43.21,9.09,42.84s5.69-33,4.55-36.39S1669.89,337.1,1669.89,337.1Z"/></g><g class="cls-52"><circle class="cls-49" cx="335.77" cy="875.17" r="153"/><path class="cls-30" d="M214.66,1017.45c18.5-39.81,49.83-52.57,101.26-52.57,61.25,0,101.81,37.82,110.83,70.12C317.07,1036.5,214.66,1017.45,214.66,1017.45Z"/><path class="cls-53" d="M294.54,771.24c-25.93,7.28-24.79,21.85-33.43,35.37s-27.42,22.54-29.68,31.55,5.79,27.8-3.75,38.31-12.77,15.78-9,26.29,12,27,12.77,29.3,11.27,18,24,20.28,36.81,6,48.83,11.27,50.67-6.73,72.12-6,36.06-15,34.55-25.57,15.82-31.55,15.78-49.58c-.05-19.36-22.54-33.8-28.55-46.57s.75-35.31-21.78-48.66c-14.24-8.44-24-7.68-35.31-11.44S311.06,766.6,294.54,771.24Z"/><path class="cls-8" d="M326.09,996.67c-5.87,8.65-10.17,9-16.53,0-5.06-7.17-15-23.46-15-31.72V882.48a15.07,15.07,0,0,1,15-15h16.53a15.07,15.07,0,0,1,15,15V965C341.11,973.21,331.35,988.9,326.09,996.67Z"/><path class="cls-12" d="M326.09,867.46H309.56a15.07,15.07,0,0,0-15,15v73.58C313.09,962,330,950.23,341.11,937V882.48A15.07,15.07,0,0,0,326.09,867.46Z"/><ellipse class="cls-8" cx="317.82" cy="868.29" rx="49.96" ry="68.07"/><path class="cls-53" d="M341.11,814.12C309.56,867.46,263,862.2,263,862.2s1.13-70.61,38.13-74.37,58.78,11.09,66.29,35.59,0,40.66,0,40.66-12-9.39-18-24.42A174.81,174.81,0,0,1,341.11,814.12Z"/><path class="cls-8" d="M273,867.24c4.67,9.84,3.14,20.34-3.41,23.46s-15.67-2.34-20.34-12.18-3.14-20.33,3.42-23.45S268.31,857.41,273,867.24Z"/><path class="cls-8" d="M360.41,867.24c-4.67,9.84-3.14,20.34,3.42,23.46s15.66-2.34,20.33-12.18,3.14-20.33-3.41-23.45S365.08,857.41,360.41,867.24Z"/><path class="cls-17" d="M336.6,905.21s-8.4,10.9-18.78,10.9S299,905.21,299,905.21Z"/></g><g class="cls-54"><circle class="cls-49" cx="3150.43" cy="529.47" r="163.03" transform="translate(548.35 2382.77) rotate(-45)"/><path class="cls-55" d="M3065.58,505.33c0,44.8,27,117.07,90.6,114.76s77.7-71.22,80.17-90.67S3065.58,505.33,3065.58,505.33Z"/><path class="cls-26" d="M3039.07,679.75c21-45.2,56.56-59.67,115-59.67,69.52,0,105.62,25.18,115.85,61.85-40.9.56-79.85,41.23-113.7,40.92C3087,722.22,3039.07,679.75,3039.07,679.75Z"/><path class="cls-8" d="M3165.56,656.15c-6.65,9.83-11.53,10.24-18.76,0-5.74-8.13-17.05-26.62-17.05-36V526.53a17.1,17.1,0,0,1,17.05-17h18.76a17.11,17.11,0,0,1,17.06,17v93.62C3182.62,629.53,3171.53,647.34,3165.56,656.15Z"/><path class="cls-12" d="M3165.56,509.48H3146.8a17.1,17.1,0,0,0-17.05,17v83.53c21.06,6.71,40.29-6.62,52.87-21.64V526.53A17.11,17.11,0,0,0,3165.56,509.48Z"/><path class="cls-8" d="M3212.89,510.43c0,42.67-25.39,77.27-56.71,77.27s-56.71-34.6-56.71-77.27,25.39-77.27,56.71-77.27S3212.89,467.75,3212.89,510.43Z"/><path class="cls-55" d="M3187.35,451.69c-6.74,23.77-21.51,23.49-42.1,31.3s-30.43,15.65-37.17,30.85c-8.59,19.39,3.9,75.91,3.9,75.91s-52.13-39-46.1-100.38,42.2-85.12,76.25-85.12,47,20.74,47,20.74,18.14.08,35.29,20.4c23,27.31,16,93.64,0,117.4s-26.6,31.21-26.25,30.15,14.9-55.64,7.1-89.38S3187.35,451.69,3187.35,451.69Z"/><path class="cls-17" d="M3177.5,552.33s-9.54,12.38-21.32,12.38-21.32-12.38-21.32-12.38Z"/></g><path class="cls-56" d="M953.1,922.34a382.85,382.85,0,1,1,149.47-30.18A381.66,381.66,0,0,1,953.1,922.34Zm0-760c-207.33,0-376,168.67-376,376s168.67,376,376,376,376-168.68,376-376S1160.42,162.34,953.1,162.34Z"/><path class="cls-56" d="M2398.12,861.55a353.9,353.9,0,1,1,138.19-27.9A352.89,352.89,0,0,1,2398.12,861.55Zm0-702c-191.36,0-347,155.67-347,347s155.67,347,347,347,347-155.68,347-347S2589.47,159.5,2398.12,159.5Z"/><path class="cls-56" d="M3058.64,1386a255.25,255.25,0,1,1,180.48-74.76A253.57,253.57,0,0,1,3058.64,1386Zm0-502.48c-136.33,0-247.24,110.91-247.24,247.24S2922.31,1378,3058.64,1378s247.24-110.91,247.24-247.24S3195,883.54,3058.64,883.54Z"/><path class="cls-56" d="M522.44,1801.18a319.09,319.09,0,1,1,225.63-93.46A317,317,0,0,1,522.44,1801.18Zm0-630.19c-171.54,0-311.1,139.56-311.1,311.1s139.56,311.09,311.1,311.09,311.09-139.56,311.09-311.09S694,1171,522.44,1171Z"/><path class="cls-56" d="M1621,542.34c-86.57,0-157-70.43-157-157s70.43-157,157-157,157,70.43,157,157S1707.55,542.34,1621,542.34Zm0-306c-82.16,0-149,66.84-149,149s66.84,149,149,149,149-66.85,149-149S1703.14,236.34,1621,236.34Z"/><path class="cls-56" d="M335.77,1032.17c-86.57,0-157-70.43-157-157s70.43-157,157-157,157,70.43,157,157S422.34,1032.17,335.77,1032.17Zm0-306c-82.16,0-149,66.84-149,149s66.84,149,149,149,149-66.84,149-149S417.93,726.17,335.77,726.17Z"/><path class="cls-56" d="M3150.43,696.5c-92.1,0-167-74.93-167-167s74.93-167,167-167,167,74.92,167,167S3242.52,696.5,3150.43,696.5Zm0-326c-87.69,0-159,71.34-159,159s71.34,159,159,159,159-71.34,159-159S3238.11,370.45,3150.43,370.45Z"/><circle class="cls-31" cx="2217.01" cy="334.71" r="74.55" transform="translate(1564.47 2479.79) rotate(-81.67)"/><path class="cls-17" d="M2216.29,308.5s-26-23-44.46-.9c-25.29,30.28,44.46,68.8,44.46,68.8s71-39.75,46.16-70.38C2243.67,282.86,2216.29,308.5,2216.29,308.5Z"/><circle class="cls-31" cx="2516.4" cy="1382.02" r="74.55" transform="translate(568.55 3491.08) rotate(-76.05)"/><path class="cls-17" d="M2515.67,1355.82s-26-23-44.45-.9c-25.3,30.28,44.45,68.79,44.45,68.79s71-39.75,46.17-70.38C2543.06,1330.17,2515.67,1355.82,2515.67,1355.82Z"/><circle class="cls-31" cx="762.99" cy="1291.2" r="74.55" transform="translate(-722.3 1499.18) rotate(-67.39)"/><path class="cls-17" d="M762.26,1265s-26-23-44.46-.9c-25.29,30.28,44.46,68.8,44.46,68.8s71-39.75,46.17-70.38C789.64,1239.35,762.26,1265,762.26,1265Z"/><path class="cls-31" d="M732.82,1086.58a44.38,44.38,0,1,1-44.38-44.37A44.38,44.38,0,0,1,732.82,1086.58Z"/><path class="cls-17" d="M688,1071s-15.5-13.66-26.47-.53c-15,18,26.47,41,26.47,41s42.26-23.66,27.48-41.9C704.31,1055.72,688,1071,688,1071Z"/><path class="cls-31" d="M2136.75,158.34a52.67,52.67,0,1,1-52.67-52.67A52.67,52.67,0,0,1,2136.75,158.34Z"/><path class="cls-17" d="M2083.57,139.82s-18.39-16.22-31.41-.63c-17.87,21.39,31.41,48.6,31.41,48.6s50.16-28.08,32.62-49.72C2102.92,121.71,2083.57,139.82,2083.57,139.82Z"/><path class="cls-31" d="M2674.39,1101.9a52.66,52.66,0,1,1-52.66-52.66A52.65,52.65,0,0,1,2674.39,1101.9Z"/><path class="cls-17" d="M2621.22,1083.39s-18.39-16.22-31.41-.64c-17.87,21.39,31.41,48.6,31.41,48.6s50.16-28.08,32.61-49.72C2640.56,1065.27,2621.22,1083.39,2621.22,1083.39Z"/><circle class="cls-30" cx="1501.43" cy="431.98" r="74.55" transform="translate(-59.08 356.51) rotate(-13.28)"/><path class="cls-17" d="M1499.76,382.87c9.67-1.33,18,22.67,17.33,30.34s18-1,27,5.66,6.34,41.34,0,43.67-31.88,2.67-40.1-1.67-13.78-3.52-13.78-3.52L1486,421.09a32.45,32.45,0,0,0,10.79-6.55C1502.43,409.54,1499.76,382.87,1499.76,382.87Zm-43,85c2.33,2,28.67,8.34,30-5s-5.33-41.66-5.33-41.66-18.33-.93-24.67,2.32C1454.31,424.78,1454.43,465.87,1456.76,467.87Z"/><circle class="cls-30" cx="837.53" cy="1565.85" r="74.55" transform="translate(-903.43 1915.7) rotate(-73.22)"/><path class="cls-17" d="M835.87,1516.74c9.66-1.33,18,22.67,17.33,30.34s18-1,27,5.66,6.33,41.34,0,43.67-31.88,2.67-40.11-1.67-13.78-3.52-13.78-3.52L822.07,1555a32.43,32.43,0,0,0,10.8-6.55C838.53,1543.41,835.87,1516.74,835.87,1516.74Zm-43,85c2.33,2,28.66,8.34,30-5s-5.34-41.66-5.34-41.66-18.32-.93-24.66,2.32C790.42,1558.65,790.53,1599.74,792.87,1601.74Z"/><circle class="cls-30" cx="2865.43" cy="983.3" r="68.33"/><path class="cls-17" d="M2863.9,938.29c8.86-1.22,16.5,20.78,15.89,27.8s16.5-.91,24.75,5.2,5.8,37.89,0,40-29.22,2.45-36.77-1.52-12.63-3.23-12.63-3.23l-3.89-33.25a29.61,29.61,0,0,0,9.9-6C2866.34,962.73,2863.9,938.29,2863.9,938.29Zm-39.42,77.91c2.14,1.84,26.28,7.64,27.5-4.58s-4.89-38.19-4.89-38.19-16.79-.85-22.61,2.12C2822.24,976.7,2822.34,1014.37,2824.48,1016.2Z"/><circle class="cls-30" cx="1285.43" cy="740.66" r="57.87" transform="translate(-147.23 1125.87) rotate(-45)"/><path class="cls-17" d="M1284.13,702.54c7.51-1,14,17.6,13.46,23.55s14-.78,21,4.4,4.91,32.08,0,33.9-24.75,2.07-31.14-1.3-10.69-2.73-10.69-2.73l-3.29-28.15a25,25,0,0,0,8.37-5.08C1286.2,723.24,1284.13,702.54,1284.13,702.54Zm-33.38,66c1.82,1.55,22.26,6.46,23.29-3.89s-4.14-32.34-4.14-32.34-14.22-.72-19.15,1.8C1248.86,735.07,1248.94,767,1250.75,768.53Z"/><circle class="cls-38" cx="449.22" cy="798.56" r="74.55" transform="translate(-433.09 551.54) rotate(-45)"/><path class="cls-17" d="M413.66,838.06c-11-65.87,39.41-67.49,39.41-67.49V751.05L493,791l-38.49,38.49V807.16s-19.35.81-26.67,11.38S413.66,838.06,413.66,838.06Z"/><circle class="cls-38" cx="1674.67" cy="1556.63" r="74.55" transform="translate(-338.31 2640.86) rotate(-71.22)"/><path class="cls-17" d="M1639.11,1596.14c-11-65.87,39.41-67.5,39.41-67.5v-19.51l40,39.95L1680,1587.57v-22.33s-19.35.81-26.67,11.38S1639.11,1596.14,1639.11,1596.14Z"/><circle class="cls-56" cx="1360.54" cy="215.16" r="20"/><circle class="cls-56" cx="1360.54" cy="305.16" r="20"/><circle class="cls-56" cx="1285.54" cy="261.69" r="20" transform="translate(551.82 1349.23) rotate(-67.5)"/><path class="cls-56" d="M1360.54,309.16a3.93,3.93,0,0,1-2-.54l-75-43.47a4,4,0,0,1-.11-6.86l75-46.53a4,4,0,1,1,4.22,6.8l-69.33,43,69.23,40.13a4,4,0,0,1-2,7.46Z"/><circle class="cls-56" cx="3289.88" cy="742.85" r="20"/><circle class="cls-56" cx="3289.88" cy="832.85" r="20"/><circle class="cls-56" cx="3214.88" cy="789.38" r="20"/><path class="cls-56" d="M3289.88,836.85a3.93,3.93,0,0,1-2-.54l-75-43.47a4,4,0,0,1-.11-6.86l75-46.53a4,4,0,0,1,4.22,6.8l-69.33,43,69.23,40.13a4,4,0,0,1-2,7.46Z"/><rect class="cls-24" x="2804.56" y="207.26" width="55.73" height="50.16" rx="12.08"/><rect class="cls-24" x="2905.89" y="207.26" width="55.73" height="50.16" rx="12.08"/><rect class="cls-24" x="3007.22" y="207.26" width="55.73" height="50.16" rx="12.08"/></svg>