<?xml version="1.0" encoding="utf-8"?>
<!-- Generator: Adobe Illustrator 26.0.0, SVG Export Plug-In . SVG Version: 6.00 Build 0)  -->
<svg version="1.1" id="Layer_1" xmlns="http://www.w3.org/2000/svg" xmlns:xlink="http://www.w3.org/1999/xlink" x="0px" y="0px"
	 viewBox="0 0 181.3 149.8" style="enable-background:new 0 0 181.3 149.8;" xml:space="preserve">
<style type="text/css">
	.st0{fill:#055C9D;}
	.st1{fill:#FFFFFF;}
	.st2{fill:#199AF0;}
</style>
<g id="Layer_2_00000166653765058059715490000003927575320753407367_">
	<g id="Layer_1-2">
		<path class="st0" d="M146.8,46.7c0,11-8,18.9-19,18.8s-18.8-8-18.6-19.1s7.8-18.4,18.7-18.5S146.8,35.6,146.8,46.7z"/>
		<path class="st1" d="M28.2,96.7c0.1-10.4,3.8-14.9,14-16.9c14-2.7,28.1-2.5,42.2-0.6c5.1,0.7,8.2-0.9,8.8-4.8
			c0.7-4.1-1.9-7.3-7.2-7.5c-11.3-0.6-22.6-1.2-33.9-0.8c-6.4,0.2-12.9,1.8-19,3.8c-10.8,3.4-16.4,11.3-17.4,22.6
			c-0.2,2.7-0.4,5.3-0.4,8c-0.1,6.9,1.7,8.8,8.4,8.8c9,0.1,18,0.1,27,0c5.6,0,8.3-2.3,8.2-6.4s-2.7-6-8.1-6
			C43.6,96.6,36.1,96.7,28.2,96.7z"/>
		<path class="st1" d="M40.6,33.5c-0.4,13,11.2,25.2,24.3,25.6c12.8,0.4,24.9-11,25.4-24S79.5,9.8,66.3,9.2
			C53.3,8.7,41,20.3,40.6,33.5z"/>
		<path class="st0" d="M165.6,94.7c-0.6,3.7-4.1,5.6-8.5,4.7c-18.5-3.8-37-3.5-55.6-0.8c-1.5,0.3-2.9,0.6-4.4,1
			c-14.5,3.7-20.3,12.4-18.6,28.2h45.7c1.5-0.1,3-0.1,4.5,0.2c3.3,0.7,5.4,2.7,5.3,6.2c0,3.5-2.2,5.4-5.4,6.2c-1,0.2-2,0.2-3,0.1
			c-17.2,0-34.3,0-51.5,0c-6.7,0-8.8-2-8.6-8.6c0.1-5.7,0.5-11.3,1.2-16.9c1.8-12.7,9.1-21.5,21.3-25.1c9-2.7,18.5-4.7,27.8-5
			c13.9-0.4,27.8,1.1,41.8,1.8c0.8,0.1,1.6,0.3,2.4,0.5C164,88.2,166.3,90.5,165.6,94.7z"/>
		<path class="st0" d="M128,15.5c-16.7,0-31.3,14.7-31.2,31.3s14.9,31.1,31.6,30.9c16.3-0.1,30.8-14.9,30.7-31.4
			S144.4,15.5,128,15.5z M127.8,65.5c-11.1-0.1-18.8-8-18.6-19.1S117,28,127.9,27.9s18.9,7.8,18.9,18.8S138.8,65.6,127.8,65.5
			L127.8,65.5z"/>
		<path class="st0" d="M146.8,46.7c0,11-8,18.9-19,18.8s-18.8-8-18.6-19.1s7.8-18.4,18.7-18.5S146.8,35.6,146.8,46.7z"/>
		<path class="st0" d="M146.8,46.7c0,11-8,18.9-19,18.8s-18.8-8-18.6-19.1s7.8-18.4,18.7-18.5S146.8,35.6,146.8,46.7z"/>
		<path class="st2" d="M28.2,96.7c7.8,0,15.3,0,22.8,0c5.4,0,8,2,8.1,6s-2.6,6.4-8.2,6.4c-9,0.1-18,0.1-27,0c-6.7,0-8.5-1.9-8.4-8.8
			c0-2.7,0.2-5.3,0.4-8c0.9-11.2,6.5-19.1,17.4-22.6c6.1-1.9,12.6-3.5,19-3.8c11.3-0.4,22.6,0.2,33.9,0.8c5.3,0.3,7.9,3.5,7.2,7.5
			c-0.7,3.9-3.8,5.5-8.8,4.8c-14.1-1.9-28.2-2-42.2,0.6C32,81.8,28.3,86.3,28.2,96.7z"/>
		<path class="st2" d="M40.6,33.5C41,20.3,53.3,8.7,66.3,9.2C79.5,9.8,91,22.1,90.4,35.1s-12.7,24.4-25.5,24
			C51.8,58.7,40.1,46.5,40.6,33.5z M53,33.8c-0.2,7.8,4.5,12.7,12.1,12.9S77.8,42.1,78,34.5c0.2-7.6-4.5-12.7-12.1-12.9
			C58.1,21.5,53.2,26.1,53,33.8z"/>
		<path class="st1" d="M146.8,46.7c0,11-8,18.9-19,18.8s-18.8-8-18.6-19.1s7.8-18.4,18.7-18.5S146.8,35.6,146.8,46.7z"/>
		<path class="st1" d="M53,33.8c0.2-7.6,5.1-12.3,12.9-12.1c7.6,0.2,12.3,5.1,12.1,12.9c-0.2,7.8-5.1,12.3-12.9,12.1
			S52.8,41.6,53,33.8z"/>
	</g>
</g>
</svg>
