<svg id="outline" xmlns="http://www.w3.org/2000/svg" viewBox="0 0 480 480"><defs><style>.cls-1{fill:#199af0;}.cls-2{fill:#003060;}.cls-3{fill:#055c9d;}.cls-4{fill:#4fb7eb;}</style></defs><path class="cls-1" d="M472,16H40A24,24,0,0,0,16,40V472a24,24,0,0,0,24,24H472a24,24,0,0,0,24-24V40A24,24,0,0,0,472,16ZM40,32H472a8,8,0,0,1,8,8V64H32V40A8,8,0,0,1,40,32ZM472,480H40a8,8,0,0,1-8-8V80H480V472A8,8,0,0,1,472,480Z" transform="translate(-16 -16)"/><circle class="cls-2" cx="32" cy="32" r="8"/><circle class="cls-3" cx="56" cy="32" r="8"/><circle class="cls-1" cx="80" cy="32" r="8"/><path class="cls-3" d="M88,160a32,32,0,1,0-32-32A32,32,0,0,0,88,160Zm0-48a16,16,0,1,1-16,16A16,16,0,0,1,88,112Z" transform="translate(-16 -16)"/><rect class="cls-1" x="120" y="88" width="48" height="16"/><rect class="cls-4" x="184" y="88" width="64" height="16"/><rect class="cls-1" x="120" y="120" width="24" height="16"/><rect class="cls-4" x="160" y="120" width="48" height="16"/><path class="cls-3" d="M448,229.6H64a8,8,0,0,0-8,8v208a8,8,0,0,0,8,8H448a8,8,0,0,0,8-8v-208A8,8,0,0,0,448,229.6Zm-8,208H72v-192H440Z" transform="translate(-16 -16)"/><path class="cls-4" d="M424,405.6v-16H410.9l-33.49-27.9A52.08,52.08,0,0,0,328,352.13V328.91l5.66-5.65A8,8,0,0,0,336,317.6v-16a8,8,0,0,0-4.42-7.16,84.29,84.29,0,0,0-37.47-8.84H225.89a84.29,84.29,0,0,0-37.47,8.84A8,8,0,0,0,184,301.6v16a8,8,0,0,0,2.34,5.66l5.66,5.65V341.6H136a32,32,0,0,0-32,32v16H88v16ZM367.17,374,385.9,389.6H302.1L320.83,374a36.18,36.18,0,0,1,46.34,0ZM294.11,301.6A68.23,68.23,0,0,1,320,306.74v7.55l-5.66,5.65A8,8,0,0,0,312,325.6v35c-.48.37-.95.74-1.41,1.13L277.1,389.6H272V328.91l5.66-5.65A8,8,0,0,0,280,317.6v-16ZM200,306.74a68.23,68.23,0,0,1,25.89-5.14h12.22A68.23,68.23,0,0,1,264,306.74v7.55l-5.66,5.65A8,8,0,0,0,256,325.6v64H232v-16a32.06,32.06,0,0,0-24-31v-17a8,8,0,0,0-2.34-5.66L200,314.29ZM120,373.6a16,16,0,0,1,11.4-15.32l5.44,10.9A8,8,0,0,0,152,365.6v-8h3.06l5.78,11.58A8,8,0,0,0,176,365.6v-8h3.06l5.78,11.58A8,8,0,0,0,200,365.6v-8a16,16,0,0,1,16,16v16H120Z" transform="translate(-16 -16)"/><rect class="cls-4" x="41.2" y="159.89" width="394.15" height="12.55"/><rect class="cls-1" x="41.2" y="186.8" width="262.8" height="12.55"/></svg>